<svg width="24" height="24" viewBox="0 0 24 24" fill="none" xmlns="http://www.w3.org/2000/svg">
<path d="M17.8536 11.6466C17.8536 11.6466 17.8535 11.6466 17.8535 11.6465L12.3535 6.14649C12.1549 5.95466 11.8384 5.96015 11.6465 6.15876C11.4594 6.35255 11.4594 6.65974 11.6465 6.85346L16.293 11.5H6.5C6.22388 11.5 6 11.7239 6 12C6 12.2761 6.22388 12.5 6.5 12.5H16.293L11.6465 17.1465C11.4479 17.3383 11.4424 17.6549 11.6342 17.8535C11.826 18.0521 12.1426 18.0576 12.3412 17.8658C12.3454 17.8618 12.3495 17.8577 12.3535 17.8535L17.8535 12.3535C18.0488 12.1583 18.0488 11.8419 17.8536 11.6466Z" fill="#111111"/>
</svg>
