<svg width="24" height="24" viewBox="0 0 24 24" fill="none" xmlns="http://www.w3.org/2000/svg">
<path d="M6.14636 12.3534C6.14642 12.3534 6.14648 12.3534 6.14648 12.3535L11.6465 17.8535C11.8451 18.0453 12.1616 18.0398 12.3535 17.8412C12.5406 17.6475 12.5406 17.3403 12.3535 17.1465L7.70697 12.5L17.5 12.5C17.7761 12.5 18 12.2761 18 12C18 11.7239 17.7761 11.5 17.5 11.5L7.70697 11.5L12.3535 6.85351C12.5521 6.66168 12.5576 6.34515 12.3658 6.14654C12.1739 5.94787 11.8574 5.94238 11.6588 6.13421C11.6546 6.13824 11.6505 6.14233 11.6465 6.14654L6.14648 11.6465C5.95123 11.8417 5.95123 12.1581 6.14636 12.3534Z" fill="#111111"/>
</svg>
