<svg width="20" height="20" viewBox="0 0 20 20" fill="none" xmlns="http://www.w3.org/2000/svg">
<path d="M10 0C4.47717 0 0 4.47717 0 10C0 14.423 2.87469 18.1687 6.85516 19.4878C7.33978 19.5634 7.52502 19.2716 7.52502 19.0128C7.52502 18.7753 7.51251 17.9878 7.51251 17.1503C5 17.6128 4.34998 16.5378 4.15002 15.9753C3.92804 15.4282 3.57623 14.9435 3.125 14.5628C2.77502 14.3753 2.27502 13.9128 3.11249 13.9003C3.76148 13.9707 4.33539 14.3533 4.65003 14.9253C4.65101 14.927 4.65198 14.9288 4.65296 14.9305C5.23005 15.9603 6.53266 16.3273 7.56251 15.7502C7.60578 15.2419 7.83235 14.7665 8.20002 14.4128C5.97504 14.1628 3.65003 13.3002 3.65003 9.47527C3.63593 8.48137 4.00269 7.51983 4.67499 6.78777C4.36926 5.92395 4.40503 4.97601 4.77502 4.13775C4.77502 4.13775 5.61248 3.87524 7.52502 5.16277C9.16131 4.7127 10.8887 4.7127 12.525 5.16277C14.4375 3.86272 15.275 4.13775 15.275 4.13775C15.645 4.97601 15.6807 5.92394 15.375 6.78777C16.0493 7.5186 16.4164 8.48095 16.4 9.47527C16.4 13.3127 14.0625 14.1628 11.8375 14.4128C12.3204 14.9022 12.5668 15.5773 12.5125 16.2628C12.5125 17.6003 12.5 18.6753 12.5 19.0128C12.4993 19.066 12.5073 19.1191 12.5236 19.1698C12.6067 19.4286 12.8837 19.571 13.1426 19.4886C17.1243 18.1702 20 14.4238 20 10C20 4.47717 15.5228 0 10 0Z" fill="#111111"/>
</svg>
