<svg width="18" height="18" viewBox="0 0 18 18" fill="none" xmlns="http://www.w3.org/2000/svg">
<path d="M9.00087 0C4.03065 0 0 4.0288 0 9.00087C0 13.9729 4.03065 17.9999 9.00087 17.9999C13.9711 17.9999 17.9999 13.9711 17.9999 9.00087C17.9999 4.03065 13.9711 0 9.00087 0ZM1.17306 9.58833L9.59018 1.17121L12.0215 3.60442L11.1654 4.46059L9.59018 2.88354L2.88539 9.58833L5.22039 11.9252L8.19289 8.95269L9.04905 9.80885L5.22039 13.6375L1.17306 9.58833ZM8.41156 16.8287L5.9802 14.3973L6.83636 13.5411L8.41156 15.1163L15.1163 8.41156L12.7813 6.07656L9.80885 9.04905L8.95269 8.19289L12.7813 4.36423L16.8287 8.41156L8.41156 16.8287Z" fill="black"/>
</svg>
