<svg width="238" height="200" viewBox="0 0 238 200" fill="none" xmlns="http://www.w3.org/2000/svg">
<g clip-path="url(#clip0_373_182)">
<path d="M100.797 17.8922C100.521 17.8921 100.297 18.116 100.297 18.3921C100.297 18.6683 100.521 18.8921 100.797 18.8922L100.797 17.8922ZM181.814 96.0896C181.828 96.3654 182.062 96.5782 182.338 96.5648C182.614 96.5514 182.826 96.317 182.813 96.0412L181.814 96.0896ZM164.137 152.253C164.313 152.04 164.283 151.724 164.07 151.549C163.856 151.373 163.541 151.404 163.366 151.617L164.137 152.253ZM141.552 170.156C141.314 170.295 141.233 170.601 141.372 170.84C141.511 171.079 141.817 171.159 142.055 171.02L141.552 170.156ZM60.0551 29.8571C60.2939 29.7183 60.3749 29.4123 60.2361 29.1735C60.0973 28.9348 59.7913 28.8538 59.5525 28.9926L60.0551 29.8571ZM100.797 182.108C101.073 182.108 101.297 181.884 101.297 181.608C101.297 181.332 101.074 181.108 100.797 181.108L100.797 182.108ZM163.752 96.0654V95.5654H163.252V96.0654H163.752ZM163.752 199.346H163.252V199.846H163.752V199.346ZM236.536 199.346V199.846H237.036V199.346H236.536ZM236.536 122.209H237.036V121.709H236.536V122.209ZM210.392 122.209H209.892V122.709H210.392V122.209ZM210.392 96.0654H210.892V95.5654H210.392V96.0654ZM209.072 135.726H208.572H209.072ZM100.797 18.8922C121.631 18.8945 141.665 26.9124 156.748 41.2842L157.438 40.5603C142.169 26.0112 121.888 17.8945 100.797 17.8922L100.797 18.8922ZM156.748 41.2842C171.831 55.6561 180.807 75.2802 181.814 96.0896L182.813 96.0412C181.793 74.9753 172.707 55.1093 157.438 40.5603L156.748 41.2842ZM163.366 151.617C157.249 159.038 149.863 165.316 141.552 170.156L142.055 171.02C150.469 166.12 157.945 159.766 164.137 152.253L163.366 151.617ZM163.435 176.463C146.199 190.582 124.698 198.464 102.42 198.83L102.437 199.83C124.94 199.46 146.658 191.498 164.068 177.236L163.435 176.463ZM102.42 198.83C80.1423 199.196 58.3943 192.024 40.7038 178.479L40.0959 179.273C57.9653 192.955 79.9334 200.199 102.437 199.83L102.42 198.83ZM40.7038 178.479C23.0133 164.933 10.4179 145.809 4.96087 124.206L3.99133 124.451C9.5036 146.272 22.2264 165.59 40.0959 179.273L40.7038 178.479ZM4.96087 124.206C-0.496204 102.604 1.50509 79.792 10.6401 59.4699L9.72805 59.0599C0.500591 79.5875 -1.52095 102.631 3.99133 124.451L4.96087 124.206ZM10.6401 59.4699C19.7752 39.1479 35.5081 22.5083 55.2869 12.25L54.8265 11.3623C34.8476 21.7243 18.9555 38.5323 9.72805 59.0599L10.6401 59.4699ZM55.2869 12.25C75.0657 1.99172 97.7302 -1.28339 119.604 2.95591L119.794 1.97418C97.6992 -2.30801 74.8054 1.00023 54.8265 11.3623L55.2869 12.25ZM119.604 2.95591C141.478 7.19521 161.278 18.7002 175.792 35.6048L176.551 34.9534C161.89 17.8778 141.889 6.25637 119.794 1.97418L119.604 2.95591ZM175.792 35.6048C190.307 52.5094 198.684 73.8218 199.566 96.0852L200.565 96.0456C199.674 73.557 191.212 52.029 176.551 34.9534L175.792 35.6048ZM59.5525 28.9926C43.9449 38.0667 31.7624 52.0312 24.8898 68.7256L25.8145 69.1063C32.6034 52.6151 44.6376 38.8207 60.0551 29.8571L59.5525 28.9926ZM24.8898 68.7256C18.0172 85.4201 16.8375 103.914 21.5333 121.346L22.4989 121.086C17.8603 103.866 19.0256 85.5975 25.8145 69.1063L24.8898 68.7256ZM21.5333 121.346C26.229 138.779 36.5385 154.178 50.8667 165.162L51.4751 164.368C37.3214 153.518 27.1374 138.306 22.4989 121.086L21.5333 121.346ZM50.8667 165.162C65.195 176.145 82.7434 182.101 100.797 182.108L100.797 181.108C82.9636 181.101 65.6289 175.218 51.4751 164.368L50.8667 165.162ZM163.252 96.0654V199.346H164.252V96.0654H163.252ZM163.752 199.846H236.536V198.846H163.752V199.846ZM237.036 199.346V122.209H236.036V199.346H237.036ZM236.536 121.709H210.392V122.709H236.536V121.709ZM210.892 122.209V96.0654H209.892V122.209H210.892ZM210.392 95.5654H163.752V96.5654H210.392V95.5654ZM210.052 96.4189L236.195 122.563L236.903 121.856L210.759 95.7118L210.052 96.4189ZM189.176 144.278H211.124V143.278H189.176V144.278ZM211.124 144.278C213.382 144.278 215.212 146.108 215.212 148.366H216.212C216.212 145.556 213.934 143.278 211.124 143.278V144.278ZM215.212 148.366V165.935H216.212V148.366H215.212ZM215.212 165.935C215.212 168.193 213.382 170.023 211.124 170.023V171.023C213.934 171.023 216.212 168.745 216.212 165.935H215.212ZM211.124 170.023H189.176V171.023H211.124V170.023ZM189.176 170.023C186.919 170.023 185.088 168.193 185.088 165.935H184.088C184.088 168.745 186.366 171.023 189.176 171.023V170.023ZM185.088 165.935V148.366H184.088V165.935H185.088ZM185.088 148.366C185.088 146.108 186.919 144.278 189.176 144.278V143.278C186.366 143.278 184.088 145.556 184.088 148.366H185.088ZM191.716 143.791V135.726H190.716V143.791H191.716ZM191.716 135.726C191.716 133.49 192.604 131.346 194.184 129.766L193.477 129.059C191.709 130.827 190.716 133.225 190.716 135.726H191.716ZM194.184 129.766C195.765 128.185 197.908 127.297 200.144 127.297V126.297C197.643 126.297 195.245 127.291 193.477 129.059L194.184 129.766ZM200.144 127.297C202.379 127.297 204.523 128.185 206.103 129.766L206.81 129.059C205.042 127.291 202.644 126.297 200.144 126.297V127.297ZM206.103 129.766C207.684 131.346 208.572 133.49 208.572 135.726H209.572C209.572 133.225 208.579 130.827 206.81 129.059L206.103 129.766ZM208.572 135.726V143.791H209.572V135.726H208.572Z" fill="url(#paint0_linear_373_182)"/>
<path fill-rule="evenodd" clip-rule="evenodd" d="M74.9541 132.889H82.1436L86.8103 120.614C88.2098 116.576 89.8109 112.61 91.6077 108.732C93.158 105.808 95.1215 103.122 97.4378 100.758C99.6223 98.3044 102.219 96.2516 105.111 94.6928C107.085 93.6217 109.273 93.0054 111.516 92.8888C112.397 92.8245 113.275 93.0395 114.026 93.5032C114.304 93.7248 114.525 94.0107 114.668 94.3363C114.812 94.6619 114.874 95.0175 114.85 95.3725C114.85 96.7668 113.66 100.078 111.281 105.307L106.144 116.784C103.887 121.856 102.758 125.386 102.758 127.372C102.71 128.226 102.859 129.08 103.194 129.867C103.53 130.654 104.043 131.352 104.693 131.908C106.023 133.035 107.721 133.635 109.464 133.595C112.404 133.452 115.222 132.371 117.503 130.51C120.457 128.309 122.941 125.54 124.81 122.366H121.856C120.633 124.402 119.058 126.204 117.202 127.686C115.848 128.918 114.125 129.667 112.301 129.817C111.97 129.844 111.637 129.8 111.324 129.69C111.011 129.58 110.725 129.405 110.484 129.176C110.051 128.643 109.836 127.966 109.882 127.281C109.882 126.532 110.911 123.717 112.967 118.837L118.287 106.366C120.667 100.771 121.856 97.2287 121.856 95.7385C121.911 94.9206 121.756 94.1022 121.406 93.361C121.056 92.6198 120.523 91.9803 119.856 91.5032C118.03 90.4349 115.929 89.9301 113.817 90.0522C107.856 90.0435 101.246 93.6557 93.9868 100.889L100.426 83.4973L119.583 78.4751L118.522 74.4289L102.199 78.7081L107.712 63.8169H106.196C103.094 64.8801 98.3397 65.4771 91.9345 65.6078L91.2155 67.6862H93.2025C94.5602 67.5703 95.9271 67.7395 97.2155 68.1829C97.4877 68.3578 97.707 68.6035 97.8498 68.8938C97.9926 69.184 98.0535 69.5077 98.026 69.83C97.6032 71.769 96.9992 73.664 96.2221 75.4901L94.2584 80.7898L80.0192 84.5227L81.08 88.569L92.4837 85.5794L74.9541 132.889Z" fill="url(#paint1_linear_373_182)"/>
</g>
<defs>
<linearGradient id="paint0_linear_373_182" x1="1.75641" y1="0.905575" x2="197.17" y2="232.12" gradientUnits="userSpaceOnUse">
<stop stop-color="#2D84EB"/>
<stop offset="1" stop-color="#9A1AFF"/>
</linearGradient>
<linearGradient id="paint1_linear_373_182" x1="7.90678" y1="16.6667" x2="232.667" y2="126.728" gradientUnits="userSpaceOnUse">
<stop stop-color="#2D84EB"/>
<stop offset="1" stop-color="#9A1AFF"/>
</linearGradient>
<clipPath id="clip0_373_182">
<rect width="236.405" height="200" fill="white" transform="translate(0.797363)"/>
</clipPath>
</defs>
</svg>
