<svg width="224" height="201" viewBox="0 0 224 201" fill="none" xmlns="http://www.w3.org/2000/svg">
<path d="M12.7493 100.229C12.7493 100.505 12.9731 100.729 13.2493 100.729C13.5254 100.729 13.7493 100.505 13.7493 100.229H12.7493ZM112 1.5C112.276 1.5 112.5 1.27614 112.5 1C112.5 0.723858 112.276 0.5 112 0.5V1.5ZM210.751 100.229L211.138 99.9124C211.043 99.7964 210.901 99.7292 210.751 99.7293C210.601 99.7293 210.459 99.7966 210.364 99.9126L210.751 100.229ZM112 198.973C111.724 198.973 111.5 199.197 111.5 199.473C111.5 199.749 111.724 199.973 112 199.973L112 198.973ZM0.936617 84.4254C0.761641 84.2117 0.446613 84.1804 0.232983 84.3554C0.0193521 84.5304 -0.0119837 84.8454 0.162992 85.059L0.936617 84.4254ZM13.2346 100.229L12.8478 100.546C12.9427 100.662 13.0847 100.729 13.2345 100.729C13.3843 100.729 13.5262 100.662 13.6212 100.546L13.2346 100.229ZM26.3207 85.0592C26.4958 84.8457 26.4647 84.5307 26.2511 84.3556C26.0376 84.1805 25.7226 84.2116 25.5475 84.4252L26.3207 85.0592ZM223.064 116.048C223.239 116.262 223.554 116.293 223.767 116.118C223.981 115.943 224.012 115.628 223.837 115.414L223.064 116.048ZM197.679 115.414C197.504 115.628 197.536 115.943 197.75 116.118C197.963 116.293 198.278 116.261 198.453 116.048L197.679 115.414ZM13.7493 100.229C13.7493 74.0439 24.1013 48.9314 42.5272 30.4163L41.8183 29.7109C23.2055 48.4139 12.7493 73.7802 12.7493 100.229H13.7493ZM42.5272 30.4163C60.953 11.9012 85.9432 1.5 112 1.5V0.5C85.6764 0.5 60.4313 11.0078 41.8183 29.7109L42.5272 30.4163ZM210.251 100.229C210.253 113.196 207.713 126.036 202.776 138.017L203.701 138.398C208.687 126.296 211.253 113.327 211.251 100.229L210.251 100.229ZM202.776 138.017C197.839 149.997 190.602 160.883 181.478 170.052L182.187 170.757C191.404 161.495 198.714 150.499 203.701 138.398L202.776 138.017ZM181.478 170.052C172.355 179.221 161.523 186.495 149.602 191.457L149.986 192.38C162.029 187.367 172.971 180.02 182.187 170.757L181.478 170.052ZM149.602 191.457C137.681 196.419 124.904 198.973 112 198.973L112 199.973C125.036 199.973 137.943 197.393 149.986 192.38L149.602 191.457ZM0.162992 85.059L12.8478 100.546L13.6214 99.9124L0.936617 84.4254L0.162992 85.059ZM13.6212 100.546L26.3207 85.0592L25.5475 84.4252L12.848 99.9122L13.6212 100.546ZM223.837 115.414L211.138 99.9124L210.364 100.546L223.064 116.048L223.837 115.414ZM210.364 99.9126L197.679 115.414L198.453 116.048L211.138 100.546L210.364 99.9126Z" fill="url(#paint0_linear_378_88)"/>
<path d="M166.48 45.7566C196.99 76.2667 196.99 125.733 166.48 156.243L167.187 156.95C198.088 126.05 198.088 75.9501 167.187 45.0495L166.48 45.7566ZM166.48 156.243C135.97 186.753 86.5035 186.753 55.9934 156.243L55.2863 156.95C86.1869 187.851 136.287 187.851 167.187 156.95L166.48 156.243ZM55.9934 156.243C25.4833 125.733 25.4833 76.2667 55.9934 45.7566L55.2863 45.0495C24.3857 75.9501 24.3857 126.05 55.2863 156.95L55.9934 156.243ZM55.9934 45.7566C86.5035 15.2465 135.97 15.2465 166.48 45.7566L167.187 45.0495C136.287 14.1489 86.1869 14.1489 55.2863 45.0495L55.9934 45.7566Z" fill="url(#paint1_linear_378_88)"/>
<path fill-rule="evenodd" clip-rule="evenodd" d="M85.3936 133.876H92.5831L97.2367 121.614C98.6392 117.575 100.245 113.609 102.047 109.732C103.597 106.808 105.561 104.122 107.877 101.758C110.055 99.2977 112.653 97.2439 115.55 95.6928C117.523 94.6169 119.712 93.996 121.956 93.8758C122.838 93.8109 123.718 94.0308 124.465 94.5033C124.742 94.7227 124.961 95.0067 125.102 95.3303C125.243 95.654 125.303 96.0074 125.276 96.3595C125.276 97.7625 124.091 101.078 121.72 106.307L116.583 117.784C114.322 122.856 113.197 126.373 113.197 128.359C113.155 129.199 113.301 130.037 113.624 130.813C113.948 131.589 114.44 132.283 115.067 132.843C116.403 133.969 118.104 134.569 119.851 134.529C122.787 134.382 125.599 133.301 127.877 131.444C130.835 129.244 133.324 126.475 135.197 123.301H132.23C131.019 125.341 129.441 127.14 127.577 128.608C126.255 129.862 124.553 130.64 122.74 130.817C122.409 130.84 122.077 130.796 121.765 130.686C121.452 130.575 121.166 130.402 120.923 130.176C120.481 129.649 120.265 128.967 120.322 128.281C120.322 127.523 121.354 124.699 123.407 119.837L128.727 107.366C131.097 101.763 132.282 98.2157 132.282 96.7255C132.335 95.9111 132.181 95.0966 131.834 94.3581C131.486 93.6197 130.957 92.9815 130.296 92.5033C128.467 91.428 126.36 90.9228 124.243 91.0523C118.291 91.0523 111.685 94.6602 104.426 101.876L110.868 84.4832L130.007 79.4658L128.946 75.4195L112.642 79.6938L118.152 64.817H116.635C113.533 65.8715 108.779 66.4641 102.374 66.5948L101.655 68.6863H103.629C104.991 68.5698 106.362 68.7389 107.655 69.183C107.925 69.3568 108.143 69.6005 108.286 69.8882C108.428 70.1759 108.491 70.4969 108.465 70.817C108.045 72.761 107.441 74.6606 106.662 76.4902L104.703 81.7751L90.4433 85.5134L91.504 89.5596L102.928 86.5648L85.3936 133.876Z" fill="url(#paint2_linear_378_88)"/>
<defs>
<linearGradient id="paint0_linear_378_88" x1="48.6666" y1="25.0032" x2="209.566" y2="186.166" gradientUnits="userSpaceOnUse">
<stop stop-color="#2D84EB"/>
<stop offset="1" stop-color="#9A1AFF"/>
</linearGradient>
<linearGradient id="paint1_linear_378_88" x1="32.8157" y1="22.5762" x2="189.663" y2="179.424" gradientUnits="userSpaceOnUse">
<stop stop-color="#2D84EB"/>
<stop offset="1" stop-color="#9A1AFF"/>
</linearGradient>
<linearGradient id="paint2_linear_378_88" x1="13.7793" y1="13.0866" x2="242.894" y2="125.25" gradientUnits="userSpaceOnUse">
<stop stop-color="#2D84EB"/>
<stop offset="1" stop-color="#9A1AFF"/>
</linearGradient>
</defs>
</svg>
