<svg width="33" height="32" viewBox="0 0 33 32" fill="none" xmlns="http://www.w3.org/2000/svg">
<path d="M26.0873 26.5194C26.0045 26.7256 25.8787 26.9118 25.7181 27.0654C25.5576 27.2191 25.366 27.3366 25.1563 27.4102C24.9466 27.4837 24.7236 27.5116 24.5023 27.4919C24.281 27.4723 24.0664 27.4055 23.8729 27.2961L17.8737 22.6346L14.0234 26.1868C13.934 26.2528 13.8295 26.2953 13.7195 26.3104C13.6094 26.3254 13.4973 26.3125 13.3935 26.2729L14.1317 19.6686L14.1553 19.6874L14.1704 19.557C14.1704 19.557 24.9658 9.7284 25.4056 9.30964C25.8508 8.89197 25.7039 8.80136 25.7039 8.80136C25.7292 8.29191 24.905 8.80136 24.905 8.80136L10.6013 18.0035L4.64448 15.9748C4.64448 15.9748 3.72958 15.6467 3.64339 14.9251C3.55279 14.2091 4.67429 13.8202 4.67429 13.8202L28.3579 4.41144C28.3579 4.41144 30.3048 3.544 30.3048 4.98051L26.0873 26.5194Z" fill="#111111"/>
</svg>
