<svg width="171" height="120" viewBox="0 0 171 120" fill="none" xmlns="http://www.w3.org/2000/svg">
<g clip-path="url(#clip0_200_103)">
<path d="M106.278 65.3804C106.568 63.2157 106.714 61.0342 106.716 58.8501C106.717 52.5434 105.477 46.2982 103.068 40.4713C100.658 34.6443 97.126 29.3497 92.6729 24.8898C88.2199 20.43 82.9331 16.8921 77.1146 14.4784C71.296 12.0647 65.0597 10.8224 58.7616 10.8224" stroke="#07E78E" stroke-linejoin="round"/>
<path d="M62.6329 117.178C71.3293 116.607 79.7869 114.088 87.3819 109.808" stroke="#07E78E" stroke-linecap="round" stroke-linejoin="round"/>
<path d="M116.809 65.1189C117.028 63.0339 117.138 60.9389 117.139 58.8424C117.137 47.9354 114.087 37.2465 108.335 27.9844C102.583 18.7222 94.3585 11.2562 84.5906 6.43043C74.8226 1.60464 63.9013 -0.388414 53.0613 0.676595C42.2213 1.7416 31.8951 5.8222 23.25 12.457C14.605 19.0919 7.98607 28.0163 4.14152 38.2212C0.296966 48.4262 -0.619828 59.5048 1.49479 70.2042C3.60941 80.9037 8.67109 90.7974 16.1076 98.7667C23.544 106.736 33.0587 112.463 43.5757 115.3" stroke="#07E78E" stroke-linecap="round" stroke-linejoin="round"/>
<path d="M34.6655 17.3143C26.6883 21.9586 20.2181 28.8084 16.0306 37.0423C11.8431 45.2762 10.1161 54.5448 11.0565 63.7369C11.997 72.929 15.5651 81.6543 21.333 88.8668C27.1009 96.0794 34.8238 101.473 43.5757 104.401" stroke="#07E78E" stroke-linecap="round" stroke-linejoin="round"/>
<path d="M47.8004 78.1873H43.5757L56.0731 44.4202C56.5313 43.3437 56.8863 42.2259 57.1332 41.082C57.1479 40.8936 57.1114 40.7047 57.0276 40.5354C56.9437 40.3661 56.8156 40.2228 56.6569 40.1205C55.8972 39.8592 55.0914 39.7597 54.2911 39.8282H53.1312L53.5537 38.5975C57.3175 38.5206 60.1109 38.1719 61.9339 37.5515H62.825L54.7596 59.3577C59.0253 55.1119 62.9069 52.9889 66.4044 52.9889C67.6483 52.9127 68.8867 53.21 69.9608 53.8427C70.3495 54.1241 70.6604 54.4996 70.8646 54.9342C71.0688 55.3687 71.1596 55.848 71.1284 56.3272C71.1284 57.204 70.432 59.2911 69.0391 62.5883L65.9128 69.9263C64.7069 72.7877 64.1 74.4491 64.1 74.8952C64.0665 75.2991 64.1935 75.6999 64.4534 76.0105C64.5961 76.1433 64.7645 76.2452 64.9481 76.31C65.1318 76.3749 65.3268 76.4012 65.5211 76.3874C66.5865 76.283 67.5867 75.8255 68.3631 75.0875C69.4588 74.2239 70.3858 73.1652 71.0977 71.9646H72.8413C71.7402 73.8327 70.2778 75.4618 68.5398 76.7566C67.2008 77.8491 65.5485 78.4851 63.8235 78.5719C62.797 78.5949 61.7974 78.2421 61.0122 77.5797C60.6442 77.2498 60.3545 76.8417 60.1644 76.3851C59.9744 75.9286 59.8887 75.4353 59.9138 74.9414C59.9138 73.7722 60.5744 71.7031 61.9032 68.7187L64.9219 61.9653C66.3148 58.8885 67.0112 56.9374 67.0112 56.1118C67.0272 55.9046 66.9922 55.6967 66.9091 55.5062C66.8261 55.3158 66.6976 55.1487 66.535 55.0196C66.0956 54.7415 65.5786 54.6121 65.0602 54.6504C63.7416 54.7211 62.4556 55.0864 61.2964 55.7195C59.5941 56.6322 58.0674 57.8407 56.7875 59.2885C55.4264 60.6797 54.2727 62.2599 53.3617 63.9805C52.3025 66.262 51.3591 68.5956 50.535 70.9724L47.8004 78.1873Z" fill="#07E78E"/>
<path d="M69.1679 43.7902L46.5429 49.7297L47.1663 52.1107L69.7912 46.1713L69.1679 43.7902Z" fill="#07E78E"/>
<path d="M91.2072 113.685H170.616V65.1189H91.2072L75.0765 81.4794V97.3245L91.2072 113.685ZM84.6551 93.6017C83.8256 93.6017 83.0147 93.3554 82.325 92.8939C81.6353 92.4324 81.0978 91.7765 80.7803 91.0091C80.4629 90.2417 80.3799 89.3973 80.5417 88.5826C80.7035 87.768 81.1029 87.0196 81.6895 86.4323C82.276 85.8449 83.0233 85.445 83.8369 85.2829C84.6504 85.1209 85.4937 85.204 86.26 85.5219C87.0264 85.8398 87.6814 86.3781 88.1422 87.0687C88.6031 87.7594 88.849 88.5713 88.849 89.402C88.849 90.5158 88.4072 91.584 87.6206 92.3716C86.8341 93.1592 85.7674 93.6017 84.6551 93.6017V93.6017Z" stroke="#07E78E" stroke-miterlimit="10"/>
<path d="M83.7256 90.2634C76.9123 105.647 56.9795 118.831 38.0836 119.615" stroke="#07E78E" stroke-miterlimit="10" stroke-linecap="round" stroke-dasharray="3 3"/>
<path d="M95.1476 82.8793H105.625V84.9945H97.5903V87.9559H102.383V90.0865H97.5903V93.6709H106.355V95.84H95.1476V82.8793Z" fill="#07E78E"/>
<path d="M107.392 82.8793H114.627C117.454 82.8793 119.059 84.21 119.059 86.7252C119.102 87.5142 118.871 88.2938 118.407 88.9326C117.942 89.5714 117.272 90.0305 116.509 90.2326L119.582 95.8169H116.993L114.059 90.4865H109.842V95.8169H107.399L107.392 82.8793ZM109.834 85.0561V88.3712H114.443C115.849 88.3712 116.563 87.8636 116.563 86.7483C116.563 85.6329 115.849 85.0561 114.443 85.0561H109.834Z" fill="#07E78E"/>
<path d="M119.628 89.3635C119.592 88.4885 119.735 87.6154 120.048 86.7976C120.361 85.9798 120.837 85.2346 121.448 84.6075C122.058 83.9803 122.79 83.4845 123.598 83.1504C124.407 82.8162 125.275 82.6507 126.149 82.6639C130.143 82.6639 131.841 85.3484 132.187 86.8637H129.667C129.315 86.2471 128.801 85.7389 128.181 85.3945C127.561 85.05 126.858 84.8824 126.149 84.91C123.707 84.91 122.163 86.9329 122.163 89.3635C122.163 91.7941 123.699 93.8171 126.149 93.8171C126.869 93.8662 127.588 93.7058 128.219 93.355C128.85 93.0043 129.366 92.4782 129.706 91.8403H132.187C131.872 93.2094 130.305 96.0554 126.149 96.0554C125.275 96.0686 124.408 95.9033 123.6 95.5696C122.792 95.2359 122.061 94.7408 121.451 94.1145C120.84 93.4882 120.364 92.7439 120.05 91.9271C119.737 91.1102 119.593 90.2379 119.628 89.3635Z" fill="#07E78E"/>
<path d="M134.268 89.3251H140.336V91.4789H134.268V89.3251Z" fill="#07E78E"/>
<path d="M151.49 95.84H141.919V94.3017L146.528 89.9558C147.733 88.8097 148.371 88.0251 148.371 86.879C148.389 86.6114 148.35 86.3428 148.256 86.0917C148.161 85.8406 148.014 85.6128 147.824 85.4238C147.633 85.2348 147.405 85.089 147.153 84.9963C146.902 84.9037 146.633 84.8664 146.366 84.8869C146.087 84.8769 145.808 84.9267 145.549 85.0331C145.29 85.1395 145.057 85.3 144.865 85.5039C144.673 85.7077 144.527 85.9503 144.436 86.2153C144.345 86.4803 144.312 86.7616 144.338 87.0406V87.8098H141.973V86.9175C141.947 86.3389 142.044 85.7614 142.258 85.2231C142.472 84.6848 142.797 84.198 143.212 83.7947C143.627 83.3913 144.123 83.0806 144.666 82.8831C145.21 82.6855 145.789 82.6056 146.366 82.6486C149.17 82.6486 150.814 84.3638 150.814 86.756C150.814 88.7789 149.608 90.0173 148.002 91.5172L145.698 93.6863H151.497L151.49 95.84Z" fill="#07E78E"/>
<path d="M161.821 87.4406V91.2865C161.821 94.3632 159.947 96.0862 157.066 96.0862C154.186 96.0862 152.312 94.3478 152.312 91.2865V87.4406C152.312 84.4484 154.147 82.6409 157.066 82.6409C159.985 82.6409 161.821 84.4484 161.821 87.4406ZM159.417 91.2403V87.479C159.417 85.9407 158.649 84.833 157.066 84.833C155.484 84.833 154.716 85.9484 154.716 87.479V91.2403C154.716 92.7787 155.484 93.8863 157.066 93.8863C158.649 93.8863 159.417 92.771 159.417 91.2403Z" fill="#07E78E"/>
</g>
<defs>
<clipPath id="clip0_200_103">
<rect width="171" height="120" fill="white"/>
</clipPath>
</defs>
</svg>
