<svg width="286" height="200" viewBox="0 0 286 200" fill="none" xmlns="http://www.w3.org/2000/svg">
<g clip-path="url(#clip0_378_74)">
<path d="M178.359 98.0834L178.859 98.0838L178.859 98.0835L178.359 98.0834ZM104.855 194.797C104.579 194.815 104.371 195.053 104.389 195.329C104.407 195.604 104.645 195.813 104.921 195.795L104.855 194.797ZM146.382 183.449C146.622 183.314 146.707 183.009 146.572 182.768C146.436 182.528 146.131 182.443 145.891 182.578L146.382 183.449ZM194.684 108.479C194.655 108.754 194.854 109 195.129 109.029C195.403 109.058 195.649 108.858 195.678 108.584L194.684 108.479ZM195.731 98.0706L196.231 98.0709L196.231 98.0705L195.731 98.0706ZM72.9956 192.65C73.2622 192.722 73.5366 192.564 73.6085 192.297C73.6805 192.031 73.5226 191.756 73.256 191.684L72.9956 192.65ZM58.527 29.2892C58.7656 29.1503 58.8464 28.8442 58.7075 28.6055C58.5685 28.3669 58.2625 28.2861 58.0238 28.425L58.527 29.2892ZM72.9672 174.476C73.229 174.563 73.5123 174.422 73.6 174.16C73.6876 173.898 73.5463 173.615 73.2844 173.527L72.9672 174.476ZM152.512 189.475L152.155 189.826L152.302 189.975H152.512V189.475ZM284.859 189.475V189.975H285.359V189.475H284.859ZM284.859 108.531H285.359V108.031H284.859V108.531ZM152.512 108.531V108.031H152.302L152.155 108.18L152.512 108.531ZM125.627 135.799L125.271 135.448L125.127 135.594V135.799H125.627ZM125.627 162.208H125.127V162.413L125.271 162.559L125.627 162.208ZM141.591 156.003V155.503V156.003ZM148.581 149.003H148.081H148.581ZM178.125 109.034C178.611 105.404 178.856 101.746 178.859 98.0838L177.859 98.0831C177.856 101.701 177.614 105.315 177.134 108.901L178.125 109.034ZM178.859 98.0835C178.861 87.5067 176.782 77.0332 172.741 67.261L171.817 67.6431C175.807 77.2941 177.861 87.6377 177.859 98.0833L178.859 98.0835ZM172.741 67.261C168.7 57.4888 162.776 48.6094 155.308 41.1297L154.601 41.8363C161.976 49.223 167.826 57.9922 171.817 67.6431L172.741 67.261ZM155.308 41.1297C147.84 33.6501 138.974 27.7169 129.215 23.6688L128.832 24.5925C138.469 28.5902 147.225 34.4496 154.601 41.8363L155.308 41.1297ZM129.215 23.6688C119.457 19.6208 108.998 17.5373 98.4355 17.5373L98.4355 18.5373C108.867 18.5373 119.195 20.5948 128.832 24.5925L129.215 23.6688ZM104.921 195.795C119.489 194.839 133.658 190.62 146.382 183.449L145.891 182.578C133.297 189.675 119.274 193.851 104.855 194.797L104.921 195.795ZM195.678 108.584C196.045 105.091 196.229 101.582 196.231 98.0709L195.231 98.0704C195.229 101.547 195.047 105.022 194.684 108.479L195.678 108.584ZM196.231 98.0705C196.227 79.799 191.119 61.893 181.483 46.3769L180.634 46.9044C190.171 62.2622 195.227 79.9855 195.231 98.0707L196.231 98.0705ZM181.483 46.3769C171.847 30.8608 158.069 18.3534 141.705 10.2691L141.262 11.1656C157.459 19.1673 171.096 31.5467 180.634 46.9044L181.483 46.3769ZM141.705 10.2691C125.342 2.18476 107.046 -1.15411 88.8862 0.630044L88.984 1.62525C106.958 -0.140628 125.066 3.16403 141.262 11.1656L141.705 10.2691ZM88.8862 0.630044C70.7266 2.4142 53.4277 9.25019 38.9453 20.3651L39.5541 21.1584C53.8884 10.1571 71.0103 3.39113 88.984 1.62525L88.8862 0.630044ZM38.9453 20.3651C24.4629 31.4799 13.3747 46.4303 6.93422 63.5258L7.87002 63.8783C14.2448 46.9572 25.2198 32.1596 39.5541 21.1584L38.9453 20.3651ZM6.93422 63.5258C0.493788 80.6213 -1.04203 99.1801 2.5004 117.104L3.48142 116.91C-0.0248807 99.169 1.49528 80.7995 7.87002 63.8783L6.93422 63.5258ZM2.5004 117.104C6.04282 135.028 14.5222 151.602 26.98 164.952L27.7111 164.27C15.3806 151.056 6.98772 134.651 3.48142 116.91L2.5004 117.104ZM26.98 164.952C39.4377 178.303 55.3769 187.897 72.9956 192.65L73.256 191.684C55.8178 186.98 40.0416 177.484 27.7111 164.27L26.98 164.952ZM58.0238 28.425C44.6453 36.214 33.7943 47.7016 26.7715 61.5105L27.6629 61.9638C34.5985 48.3263 45.3148 36.9814 58.527 29.2892L58.0238 28.425ZM26.7715 61.5105C19.7488 75.3194 16.8525 90.8634 18.4298 106.279L19.4246 106.177C17.8669 90.9527 20.7273 75.6014 27.6629 61.9638L26.7715 61.5105ZM18.4298 106.279C20.007 121.695 25.9909 136.328 35.6641 148.424L36.4451 147.799C26.892 135.853 20.9823 121.402 19.4246 106.177L18.4298 106.279ZM35.6641 148.424C45.3373 160.52 58.2892 169.565 72.9672 174.476L73.2844 173.527C58.7892 168.678 45.9982 159.745 36.4451 147.799L35.6641 148.424ZM152.512 189.975H284.859V188.975H152.512V189.975ZM285.359 189.475V108.531H284.359V189.475H285.359ZM284.859 108.031H152.512V109.031H284.859V108.031ZM152.155 108.18L125.271 135.448L125.983 136.15L152.868 108.883L152.155 108.18ZM125.127 135.799V162.208H126.127V135.799H125.127ZM125.271 162.559L152.155 189.826L152.868 189.124L125.983 161.856L125.271 162.559ZM141.591 155.503C140.308 155.503 139.053 155.122 137.986 154.408L137.43 155.239C138.662 156.063 140.11 156.503 141.591 156.503V155.503ZM137.986 154.408C136.919 153.693 136.087 152.678 135.596 151.491L134.671 151.873C135.238 153.243 136.198 154.415 137.43 155.239L137.986 154.408ZM135.596 151.491C135.104 150.303 134.976 148.996 135.226 147.735L134.245 147.54C133.956 148.995 134.105 150.503 134.671 151.873L135.596 151.491ZM135.226 147.735C135.477 146.474 136.095 145.316 137.003 144.407L136.295 143.7C135.247 144.749 134.534 146.086 134.245 147.54L135.226 147.735ZM137.003 144.407C137.91 143.498 139.067 142.879 140.325 142.629L140.13 141.648C138.677 141.937 137.342 142.652 136.295 143.7L137.003 144.407ZM140.325 142.629C141.584 142.378 142.889 142.506 144.075 142.998L144.458 142.075C143.089 141.507 141.583 141.358 140.13 141.648L140.325 142.629ZM144.075 142.998C145.261 143.49 146.274 144.323 146.987 145.392L147.819 144.837C146.996 143.604 145.827 142.642 144.458 142.075L144.075 142.998ZM146.987 145.392C147.701 146.461 148.081 147.718 148.081 149.003H149.081C149.081 147.52 148.642 146.07 147.819 144.837L146.987 145.392ZM148.081 149.003C148.081 150.727 147.397 152.381 146.18 153.599L146.888 154.306C148.292 152.899 149.081 150.992 149.081 149.003H148.081ZM146.18 153.599C144.963 154.818 143.312 155.503 141.591 155.503V156.503C143.578 156.503 145.483 155.712 146.888 154.306L146.18 153.599Z" fill="url(#paint0_linear_378_74)"/>
<path d="M140.043 150.439C128.688 176.078 95.4663 198.051 63.9731 199.359" stroke="url(#paint1_linear_378_74)" stroke-miterlimit="10" stroke-linecap="round" stroke-dasharray="3 3"/>
<path fill-rule="evenodd" clip-rule="evenodd" d="M80.1681 130.312H73.127L90.2991 83.9141L79.1105 86.8513L78.0716 82.8829L92.0377 79.2165L93.9559 74.0336C94.7196 72.2393 95.3112 70.3764 95.7226 68.4699C95.7472 68.1559 95.6864 67.8411 95.5466 67.559C95.4069 67.2768 95.1934 67.0378 94.9289 66.8674C93.6628 66.4319 92.3197 66.266 90.9859 66.3803H89.0527L89.7569 64.3291C96.0299 64.2009 100.686 63.6198 103.724 62.5857H105.209L99.8128 77.1754L115.78 72.9838L116.819 76.9522L98.0754 81.8727L91.7668 98.9295C98.8762 91.853 105.346 88.3148 111.175 88.3148C113.248 88.1877 115.312 88.6832 117.102 89.7378C117.75 90.2068 118.268 90.8326 118.608 91.5568C118.949 92.281 119.1 93.0799 119.048 93.8785C119.048 95.34 117.887 98.8184 115.566 104.314L110.355 116.544C108.345 121.313 107.334 124.082 107.334 124.825C107.278 125.498 107.49 126.166 107.923 126.684C108.161 126.905 108.441 127.075 108.748 127.183C109.054 127.291 109.379 127.335 109.703 127.312C111.478 127.138 113.145 126.376 114.439 125.146C116.265 123.706 117.81 121.942 118.997 119.941H121.903C120.068 123.054 117.63 125.77 114.734 127.928C112.502 129.748 109.748 130.808 106.873 130.953C105.162 130.991 103.496 130.403 102.188 129.299C101.574 128.75 101.092 128.069 100.775 127.308C100.458 126.548 100.315 125.725 100.357 124.902C100.357 122.954 101.458 119.505 103.673 114.531L108.704 103.275C111.025 98.1475 112.186 94.8956 112.186 93.5196C112.213 93.1743 112.154 92.8277 112.016 92.5103C111.878 92.1929 111.663 91.9144 111.392 91.6992C110.66 91.2358 109.798 91.0201 108.934 91.0838C106.737 91.2017 104.593 91.8106 102.661 92.8658C99.8242 94.3869 97.2797 96.4011 95.1465 98.8141C92.8781 101.133 90.9551 103.766 89.4368 106.634C87.6716 110.437 86.0992 114.326 84.7256 118.287L80.1681 130.312ZM237.033 159.733H252.985L252.997 156.144H243.332L247.172 152.529C249.848 150.029 251.858 147.965 251.858 144.593C251.858 140.606 249.118 137.747 244.446 137.747C243.484 137.676 242.519 137.809 241.612 138.138C240.706 138.468 239.88 138.985 239.188 139.658C238.496 140.33 237.954 141.141 237.598 142.038C237.242 142.936 237.08 143.898 237.123 144.862V146.35H241.066V145.068C241.022 144.603 241.077 144.134 241.229 143.692C241.38 143.25 241.624 142.846 241.944 142.506C242.264 142.167 242.653 141.899 243.084 141.722C243.515 141.544 243.98 141.461 244.446 141.478C244.891 141.444 245.338 141.506 245.757 141.66C246.177 141.815 246.558 142.058 246.875 142.373C247.192 142.688 247.437 143.068 247.595 143.486C247.752 143.905 247.818 144.352 247.787 144.798C247.787 146.708 246.724 148.016 244.714 149.926L237.033 157.169V159.733ZM200.581 144.663C200.06 146.026 199.821 147.481 199.881 148.939C199.823 150.397 200.063 151.85 200.585 153.212C201.107 154.573 201.901 155.814 202.919 156.858C203.936 157.901 205.155 158.727 206.501 159.283C207.848 159.839 209.293 160.114 210.75 160.092C217.676 160.092 220.287 155.349 220.812 153.067H216.677C216.112 154.13 215.251 155.007 214.2 155.592C213.148 156.176 211.95 156.444 210.75 156.362C206.666 156.362 204.105 152.99 204.105 148.939C204.105 144.888 206.679 141.517 210.75 141.517C211.931 141.471 213.102 141.75 214.136 142.324C215.17 142.898 216.026 143.745 216.613 144.773H220.812C220.236 142.247 217.407 137.773 210.75 137.773C209.292 137.751 207.846 138.027 206.498 138.584C205.151 139.141 203.931 139.967 202.914 141.012C201.896 142.058 201.103 143.3 200.581 144.663ZM159.081 138.132H176.543V141.658H163.152V146.593H171.14V150.144H163.152V156.118H177.759V159.733H159.081V138.132ZM179.488 138.132H191.547C196.258 138.132 198.934 140.35 198.934 144.542C199.004 145.857 198.62 147.156 197.846 148.221C197.072 149.286 195.955 150.051 194.684 150.388L199.805 159.695H195.49L190.6 150.811H183.572V159.695H179.5L179.488 138.132ZM183.559 141.76V147.285H191.24C193.583 147.285 194.773 146.439 194.773 144.58C194.773 142.722 193.583 141.76 191.24 141.76H183.559ZM224.283 148.875H234.396V152.465H224.283V148.875ZM270.203 145.734V152.144C270.203 157.272 267.079 160.144 262.279 160.144C257.478 160.144 254.354 157.246 254.354 152.144V145.734C254.354 140.747 257.414 137.735 262.279 137.735C267.143 137.735 270.203 140.747 270.203 145.734ZM266.196 152.067V145.798C266.196 143.234 264.916 141.388 262.279 141.388C259.641 141.388 258.361 143.247 258.361 145.798V152.067C258.361 154.631 259.641 156.477 262.279 156.477C264.916 156.477 266.196 154.618 266.196 152.067Z" fill="url(#paint2_linear_378_74)"/>
</g>
<defs>
<linearGradient id="paint0_linear_378_74" x1="1.50919" y1="0.912283" x2="182.628" y2="264.93" gradientUnits="userSpaceOnUse">
<stop stop-color="#2D84EB"/>
<stop offset="1" stop-color="#9A1AFF"/>
</linearGradient>
<linearGradient id="paint1_linear_378_74" x1="64.0722" y1="150.502" x2="108.469" y2="219.539" gradientUnits="userSpaceOnUse">
<stop stop-color="#2D84EB"/>
<stop offset="1" stop-color="#9A1AFF"/>
</linearGradient>
<linearGradient id="paint2_linear_378_74" x1="-7.83284" y1="7.5" x2="20.5724" y2="218.327" gradientUnits="userSpaceOnUse">
<stop stop-color="#2D84EB"/>
<stop offset="1" stop-color="#9A1AFF"/>
</linearGradient>
<clipPath id="clip0_378_74">
<rect width="285" height="200" fill="white" transform="translate(0.5)"/>
</clipPath>
</defs>
</svg>
