<svg width="142" height="146" viewBox="0 0 142 146" fill="none" xmlns="http://www.w3.org/2000/svg">
<path d="M107.378 40.6025L107.117 41.0291C107.277 41.127 107.479 41.127 107.639 41.0291L107.378 40.6025ZM107.378 10.8931L107.811 10.6431C107.722 10.4884 107.557 10.3931 107.378 10.3931C107.199 10.3931 107.034 10.4884 106.945 10.6431L107.378 10.8931ZM120.055 32.8506L120.316 33.2772C120.547 33.1357 120.624 32.8355 120.488 32.6006L120.055 32.8506ZM120.055 37.6281L120.466 37.9125L119.794 37.2016L120.055 37.6281ZM107.378 55.9618L106.967 56.2462C107.06 56.3812 107.214 56.4618 107.378 56.4618C107.542 56.4618 107.696 56.3812 107.789 56.2462L107.378 55.9618ZM107.378 27.06L107.586 26.6052C107.454 26.545 107.302 26.545 107.17 26.6052L107.378 27.06ZM94.7008 32.8506L94.2678 32.6006C94.1322 32.8355 94.2085 33.1357 94.4399 33.2772L94.7008 32.8506ZM94.7008 37.6281L94.9617 37.2016L94.2896 37.9125L94.7008 37.6281ZM140.5 33.9771C140.5 51.9124 125.919 66.4542 107.929 66.4542V67.4542C126.468 67.4542 141.5 52.4673 141.5 33.9771H140.5ZM107.929 66.4542C89.9394 66.4542 75.3583 51.9124 75.3583 33.9771H74.3583C74.3583 52.4673 89.3898 67.4542 107.929 67.4542V66.4542ZM75.3583 33.9771C75.3583 16.0418 89.9394 1.5 107.929 1.5V0.5C89.3898 0.5 74.3583 15.4869 74.3583 33.9771H75.3583ZM107.929 1.5C125.919 1.5 140.5 16.0418 140.5 33.9771H141.5C141.5 15.4869 126.468 0.5 107.929 0.5V1.5ZM66.6417 73.5496C66.6417 91.4849 52.0606 106.027 34.0709 106.027V107.027C52.6102 107.027 67.6417 92.0398 67.6417 73.5496H66.6417ZM34.0709 106.027C16.0811 106.027 1.5 91.4849 1.5 73.5496H0.5C0.5 92.0398 15.5315 107.027 34.0709 107.027V106.027ZM1.5 73.5496C1.5 55.6143 16.0811 41.0725 34.0709 41.0725V40.0725C15.5315 40.0725 0.5 55.0594 0.5 73.5496H1.5ZM34.0709 41.0725C52.0606 41.0725 66.6417 55.6143 66.6417 73.5496H67.6417C67.6417 55.0594 52.6102 40.0725 34.0709 40.0725V41.0725ZM140.5 112.023C140.5 129.958 125.919 144.5 107.929 144.5V145.5C126.468 145.5 141.5 130.513 141.5 112.023H140.5ZM107.929 144.5C89.9394 144.5 75.3583 129.958 75.3583 112.023H74.3583C74.3583 130.513 89.3898 145.5 107.929 145.5V144.5ZM75.3583 112.023C75.3583 94.0876 89.9394 79.5458 107.929 79.5458V78.5458C89.3898 78.5458 74.3583 93.5327 74.3583 112.023H75.3583ZM107.929 79.5458C125.919 79.5458 140.5 94.0876 140.5 112.023H141.5C141.5 93.5327 126.468 78.5458 107.929 78.5458V79.5458ZM21.9961 58.1603L21.9961 88.9389H22.9961L22.9961 58.1603H21.9961ZM45.1457 58.1603V88.9389H46.1457V58.1603H45.1457ZM21.9449 70.2023L46.1969 70.2023V69.2023L21.9449 69.2023V70.2023ZM21.9449 76.7977H46.1969V75.7977H21.9449V76.7977ZM107.878 40.6025V10.8931H106.878V40.6025H107.878ZM106.945 11.1431L119.622 33.1006L120.488 32.6006L107.811 10.6431L106.945 11.1431ZM119.794 32.424L107.117 40.1759L107.639 41.0291L120.316 33.2772L119.794 32.424ZM107.639 45.8066L120.316 38.0547L119.794 37.2016L107.117 44.9535L107.639 45.8066ZM119.644 37.3438L106.967 55.6775L107.789 56.2462L120.466 37.9125L119.644 37.3438ZM107.878 55.9618V45.38H106.878V55.9618H107.878ZM107.17 27.5148L119.847 33.3054L120.263 32.3958L107.586 26.6052L107.17 27.5148ZM106.945 10.6431L94.2678 32.6006L95.1338 33.1006L107.811 11.1431L106.945 10.6431ZM94.4399 33.2772L107.117 41.0291L107.639 40.1759L94.9616 32.424L94.4399 33.2772ZM107.639 44.9535L94.9617 37.2016L94.44 38.0547L107.117 45.8066L107.639 44.9535ZM94.2896 37.9125L106.967 56.2462L107.789 55.6775L95.1121 37.3438L94.2896 37.9125ZM107.17 26.6052L94.493 32.3958L94.9085 33.3054L107.586 27.5148L107.17 26.6052ZM107.429 66.9542V79.0503H108.429V66.9542H107.429ZM79.2248 50.5688L65.2907 63.2872L65.9648 64.0258L79.899 51.3074L79.2248 50.5688ZM78.0266 98.3431L65.1865 85.3337L64.4748 86.0361L77.3149 99.0456L78.0266 98.3431Z" fill="url(#paint0_linear_317_132)"/>
<defs>
<linearGradient id="paint0_linear_317_132" x1="1.18235" y1="1.18516" x2="144.755" y2="140.77" gradientUnits="userSpaceOnUse">
<stop stop-color="#2D84EB"/>
<stop offset="1" stop-color="#9A1AFF"/>
</linearGradient>
</defs>
</svg>
