<svg width="171" height="120" viewBox="0 0 171 120" fill="none" xmlns="http://www.w3.org/2000/svg">
<g clip-path="url(#clip0_200_219)">
<path d="M106.715 58.8501L107.215 58.8504V58.8501L106.715 58.8501ZM62.5999 116.679C62.3244 116.697 62.1156 116.935 62.1337 117.21C62.1518 117.486 62.3899 117.695 62.6654 117.676L62.5999 116.679ZM87.6271 110.244C87.8677 110.108 87.9528 109.803 87.8172 109.563C87.6817 109.322 87.3767 109.237 87.1362 109.373L87.6271 110.244ZM116.311 65.0667C116.282 65.3414 116.482 65.5874 116.756 65.6162C117.031 65.645 117.277 65.4458 117.306 65.1711L116.311 65.0667ZM117.139 58.8424L117.639 58.8427V58.8423L117.139 58.8424ZM43.4452 115.783C43.7119 115.855 43.9863 115.697 44.0582 115.431C44.1301 115.164 43.9723 114.889 43.7057 114.818L43.4452 115.783ZM34.9168 17.7464C35.1554 17.6074 35.2363 17.3013 35.0973 17.0627C34.9584 16.824 34.6523 16.7432 34.4137 16.8822L34.9168 17.7464ZM43.4168 104.875C43.6787 104.963 43.962 104.821 44.0496 104.56C44.1373 104.298 43.996 104.014 43.7341 103.927L43.4168 104.875ZM91.2069 113.685L90.8509 114.036L90.9977 114.185H91.2069V113.685ZM170.616 113.685V114.185H171.116V113.685H170.616ZM170.616 65.1189H171.116V64.6189H170.616V65.1189ZM91.2069 65.1189V64.6189H90.9977L90.8509 64.7678L91.2069 65.1189ZM75.0763 81.4794L74.7202 81.1283L74.5763 81.2743V81.4794H75.0763ZM75.0763 97.3245H74.5763V97.5296L74.7202 97.6756L75.0763 97.3245ZM84.6548 93.6017V93.1017V93.6017ZM88.8488 89.4019H88.3488H88.8488ZM106.773 65.4468C107.066 63.2602 107.214 61.0566 107.215 58.8504L106.215 58.8497C106.214 61.0117 106.069 63.1712 105.782 65.314L106.773 65.4468ZM107.215 58.8501C107.216 52.4778 105.964 46.1677 103.529 40.2802L102.605 40.6623C104.99 46.4286 106.216 52.6088 106.215 58.85L107.215 58.8501ZM103.529 40.2802C101.095 34.3926 97.5259 29.0429 93.0265 24.5365L92.3188 25.2431C96.7255 29.6565 100.221 34.896 102.605 40.6623L103.529 40.2802ZM93.0265 24.5365C88.527 20.0302 83.1852 16.4555 77.3059 14.0166L76.9227 14.9402C82.6806 17.3288 87.9122 20.8297 92.3188 25.2431L93.0265 24.5365ZM77.3059 14.0166C71.4266 11.5777 65.1251 10.3224 58.7613 10.3224V11.3224C64.9936 11.3224 71.1649 12.5517 76.9227 14.9402L77.3059 14.0166ZM62.6654 117.676C71.4366 117.101 79.9668 114.561 87.6271 110.244L87.1362 109.373C79.6064 113.616 71.2215 116.113 62.5999 116.679L62.6654 117.676ZM117.306 65.1711C117.526 63.0689 117.638 60.9565 117.639 58.8427L116.639 58.8421C116.638 60.9213 116.528 62.999 116.311 65.0667L117.306 65.1711ZM117.639 58.8423C117.636 47.8421 114.561 37.062 108.76 27.7206L107.91 28.2482C113.613 37.4311 116.636 48.0286 116.639 58.8425L117.639 58.8423ZM108.76 27.7206C102.959 18.3793 94.6634 10.8493 84.8118 5.98215L84.3689 6.87871C94.053 11.6631 102.208 19.0652 107.91 28.2482L108.76 27.7206ZM84.8118 5.98215C74.9602 1.11501 63.9451 -0.895154 53.0122 0.178991L53.11 1.1742C63.857 0.118325 74.6847 2.09428 84.3689 6.87871L84.8118 5.98215ZM53.0122 0.178991C42.0792 1.25314 31.6644 5.36873 22.9454 12.0604L23.5542 12.8537C32.1252 6.27567 42.363 2.23007 53.11 1.1742L53.0122 0.178991ZM22.9454 12.0604C14.2263 18.752 7.55078 27.7528 3.67337 38.045L4.60917 38.3975C8.42087 28.2797 14.9832 19.4317 23.5542 12.8537L22.9454 12.0604ZM3.67337 38.045C-0.204026 48.3372 -1.12865 59.5103 1.00403 70.3012L1.98506 70.1073C-0.111499 59.4992 0.797469 48.5153 4.60917 38.3975L3.67337 38.045ZM1.00403 70.3012C3.13671 81.0921 8.24165 91.0704 15.7418 99.1078L16.4729 98.4256C9.10005 90.5245 4.08161 80.7154 1.98506 70.1073L1.00403 70.3012ZM15.7418 99.1078C23.2419 107.145 32.838 112.921 43.4452 115.783L43.7057 114.818C33.2788 112.005 23.8457 106.327 16.4729 98.4256L15.7418 99.1078ZM34.4137 16.8822C26.3533 21.5749 19.8157 28.4961 15.5847 36.8156L16.476 37.269C20.6199 29.1207 27.0228 22.3423 34.9168 17.7464L34.4137 16.8822ZM15.5847 36.8156C11.3536 45.1352 9.60864 54.5002 10.5589 63.7878L11.5537 63.686C10.623 54.5895 12.3321 45.4172 16.476 37.269L15.5847 36.8156ZM10.5589 63.7878C11.5092 73.0754 15.1143 81.8915 20.9423 89.1791L21.7232 88.5546C16.0154 81.4171 12.4844 72.7825 11.5537 63.686L10.5589 63.7878ZM20.9423 89.1791C26.7702 96.4667 34.5736 101.917 43.4168 104.875L43.7341 103.927C35.0735 101.029 27.4311 95.692 21.7232 88.5546L20.9423 89.1791ZM91.2069 114.185H170.616V113.185H91.2069V114.185ZM171.116 113.685V65.1189H170.116V113.685H171.116ZM170.616 64.6189H91.2069V65.6189H170.616V64.6189ZM90.8509 64.7678L74.7202 81.1283L75.4323 81.8304L91.563 65.4699L90.8509 64.7678ZM74.5763 81.4794V97.3245H75.5763V81.4794H74.5763ZM74.7202 97.6756L90.8509 114.036L91.563 113.334L75.4323 96.9735L74.7202 97.6756ZM84.6548 93.1017C83.9244 93.1017 83.2103 92.8848 82.6028 92.4783L82.0467 93.3094C82.8186 93.826 83.7263 94.1017 84.6548 94.1017V93.1017ZM82.6028 92.4783C81.9953 92.0719 81.5218 91.4941 81.2421 90.818L80.318 91.2002C80.6732 92.0589 81.2748 92.793 82.0467 93.3094L82.6028 92.4783ZM81.2421 90.818C80.9624 90.1419 80.8893 89.3979 81.0318 88.68L80.051 88.4852C79.8699 89.3967 79.9629 90.3416 80.318 91.2002L81.2421 90.818ZM81.0318 88.68C81.1744 87.9622 81.5264 87.303 82.043 86.7856L81.3354 86.079C80.679 86.7363 80.2321 87.5737 80.051 88.4852L81.0318 88.68ZM82.043 86.7856C82.5597 86.2682 83.2178 85.916 83.9343 85.7733L83.7389 84.7925C82.8283 84.9739 81.9918 85.4217 81.3354 86.079L82.043 86.7856ZM83.9343 85.7733C84.6507 85.6306 85.3933 85.7038 86.0682 85.9837L86.4513 85.0601C85.5935 84.7042 84.6496 84.6112 83.7389 84.7925L83.9343 85.7733ZM86.0682 85.9837C86.7431 86.2637 87.3201 86.7378 87.726 87.3462L88.5579 86.7912C88.0422 86.0183 87.3091 85.4158 86.4513 85.0601L86.0682 85.9837ZM87.726 87.3462C88.132 87.9547 88.3488 88.6701 88.3488 89.4019H89.3488C89.3488 88.4726 89.0736 87.564 88.5579 86.7912L87.726 87.3462ZM88.3488 89.4019C88.3488 90.3834 87.9594 91.3245 87.2666 92.0183L87.9742 92.7249C88.8544 91.8435 89.3488 90.6482 89.3488 89.4019H88.3488ZM87.2666 92.0183C86.5738 92.7121 85.6343 93.1017 84.6548 93.1017V94.1017C85.8999 94.1017 87.0939 93.6064 87.9742 92.7249L87.2666 92.0183Z" fill="url(#paint0_linear_200_219)"/>
<path d="M83.726 90.2634C76.9127 105.647 56.9799 118.831 38.084 119.615" stroke="url(#paint1_linear_200_219)" stroke-miterlimit="10" stroke-linecap="round" stroke-dasharray="3 3"/>
<path fill-rule="evenodd" clip-rule="evenodd" d="M47.8009 78.1872H43.5762L53.8795 50.3485L47.1663 52.1108L46.543 49.7297L54.9226 47.5299L56.0736 44.4202C56.5318 43.3436 56.8867 42.2258 57.1336 41.0819C57.1483 40.8935 57.1118 40.7047 57.028 40.5354C56.9441 40.3661 56.816 40.2227 56.6573 40.1205C55.8977 39.8591 55.0918 39.7596 54.2915 39.8282H53.1316L53.5541 38.5975C57.3179 38.5206 60.1113 38.1719 61.9344 37.5514H62.8254L59.5877 46.3053L69.1679 43.7903L69.7913 46.1713L58.5453 49.1236L54.7601 59.3577C59.0257 55.1118 62.9073 52.9889 66.4048 52.9889C67.6488 52.9126 68.8871 53.2099 69.9613 53.8427C70.3499 54.124 70.6608 54.4996 70.865 54.9341C71.0692 55.3686 71.16 55.8479 71.1288 56.3271C71.1288 57.204 70.4324 59.291 69.0395 62.5882L65.9132 69.9262C64.7073 72.7876 64.1005 74.449 64.1005 74.8952C64.067 75.299 64.1939 75.6998 64.4538 76.0105C64.5965 76.1432 64.7649 76.2451 64.9486 76.31C65.1322 76.3748 65.3272 76.4012 65.5215 76.3874C66.587 76.2829 67.5871 75.8255 68.3636 75.0874C69.4592 74.2239 70.3862 73.1652 71.0981 71.9646H72.8417C71.7406 73.8326 70.2782 75.4618 68.5402 76.7566C67.2012 77.849 65.5489 78.485 63.8239 78.5718C62.7975 78.5948 61.7978 78.242 61.0126 77.5796C60.6446 77.2497 60.3549 76.8416 60.1649 76.3851C59.9748 75.9286 59.8892 75.4353 59.9142 74.9413C59.9142 73.7721 60.5748 71.703 61.9036 68.7186L64.9224 61.9652C66.3152 58.8885 67.0117 56.9373 67.0117 56.1117C67.0276 55.9046 66.9926 55.6966 66.9095 55.5062C66.8265 55.3157 66.698 55.1486 66.5354 55.0195C66.096 54.7415 65.579 54.6121 65.0606 54.6503C63.7421 54.721 62.456 55.0863 61.2968 55.7195C59.5945 56.6322 58.0678 57.8406 56.7879 59.2885C55.4269 60.6796 54.2731 62.2598 53.3621 63.9805C52.303 66.262 51.3595 68.5956 50.5354 70.9723L47.8009 78.1872ZM141.92 95.84H151.491L151.498 93.6862H145.699L148.003 91.5172C149.609 90.0173 150.815 88.7789 150.815 86.7559C150.815 84.3638 149.171 82.6485 146.367 82.6485C145.791 82.6055 145.211 82.6855 144.667 82.883C144.124 83.0806 143.628 83.3913 143.213 83.7946C142.798 84.1979 142.473 84.6848 142.259 85.2231C142.045 85.7613 141.948 86.3388 141.974 86.9174V87.8097H144.34V87.0405C144.313 86.7616 144.346 86.4802 144.437 86.2152C144.528 85.9502 144.674 85.7077 144.866 85.5038C145.058 85.3 145.292 85.1395 145.55 85.0331C145.809 84.9267 146.088 84.8768 146.367 84.8868C146.635 84.8663 146.903 84.9036 147.154 84.9963C147.406 85.0889 147.635 85.2347 147.825 85.4237C148.015 85.6127 148.162 85.8405 148.257 86.0916C148.351 86.3428 148.391 86.6113 148.372 86.879C148.372 88.0251 147.735 88.8096 146.529 89.9557L141.92 94.3016V95.84ZM120.049 86.7976C119.736 87.6154 119.593 88.4885 119.628 89.3635C119.594 90.2379 119.738 91.1102 120.051 91.9271C120.364 92.7439 120.841 93.4882 121.451 94.1145C122.062 94.7408 122.793 95.2359 123.601 95.5696C124.409 95.9033 125.276 96.0686 126.15 96.0554C130.305 96.0554 131.872 93.2094 132.187 91.8403H129.706C129.367 92.4782 128.851 93.0043 128.22 93.355C127.589 93.7058 126.87 93.8662 126.15 93.8171C123.699 93.8171 122.163 91.7941 122.163 89.3635C122.163 86.9329 123.707 84.91 126.15 84.91C126.858 84.8824 127.561 85.05 128.181 85.3945C128.802 85.7389 129.316 86.2471 129.668 86.8637H132.187C131.842 85.3484 130.144 82.6639 126.15 82.6639C125.275 82.6507 124.407 82.8162 123.599 83.1503C122.791 83.4845 122.059 83.9803 121.448 84.6075C120.838 85.2346 120.362 85.9798 120.049 86.7976ZM95.1484 82.8793H105.626V84.9945H97.5911V87.9559H102.384V90.0865H97.5911V93.6709H106.355V95.84H95.1484V82.8793ZM107.393 82.8793H114.628C117.455 82.8793 119.06 84.21 119.06 86.7252C119.103 87.5142 118.872 88.2938 118.408 88.9326C117.943 89.5714 117.273 90.0305 116.51 90.2326L119.583 95.8169H116.994L114.06 90.4865H109.843V95.8169H107.4L107.393 82.8793ZM109.835 85.0561V88.3712H114.444C115.85 88.3712 116.564 87.8636 116.564 86.7483C116.564 85.6329 115.85 85.0561 114.444 85.0561H109.835ZM134.27 89.3251H140.338V91.4789H134.27V89.3251ZM161.822 87.4406V91.2865C161.822 94.3632 159.948 96.0862 157.067 96.0862C154.187 96.0862 152.312 94.3478 152.312 91.2865V87.4406C152.312 84.4484 154.148 82.6409 157.067 82.6409C159.986 82.6409 161.822 84.4484 161.822 87.4406ZM159.418 91.2403V87.479C159.418 85.9407 158.65 84.833 157.067 84.833C155.485 84.833 154.717 85.9483 154.717 87.479V91.2403C154.717 92.7787 155.485 93.8863 157.067 93.8863C158.65 93.8863 159.418 92.771 159.418 91.2403Z" fill="url(#paint2_linear_200_219)"/>
</g>
<defs>
<linearGradient id="paint0_linear_200_219" x1="0.605512" y1="0.547376" x2="109.277" y2="158.958" gradientUnits="userSpaceOnUse">
<stop stop-color="#2D84EB"/>
<stop offset="1" stop-color="#9A1AFF"/>
</linearGradient>
<linearGradient id="paint1_linear_200_219" x1="38.1434" y1="90.3012" x2="64.7817" y2="131.723" gradientUnits="userSpaceOnUse">
<stop stop-color="#2D84EB"/>
<stop offset="1" stop-color="#9A1AFF"/>
</linearGradient>
<linearGradient id="paint2_linear_200_219" x1="-4.9997" y1="4.5" x2="12.0435" y2="130.996" gradientUnits="userSpaceOnUse">
<stop stop-color="#2D84EB"/>
<stop offset="1" stop-color="#9A1AFF"/>
</linearGradient>
<clipPath id="clip0_200_219">
<rect width="171" height="120" fill="white"/>
</clipPath>
</defs>
</svg>
