<svg width="33" height="32" viewBox="0 0 33 32" fill="none" xmlns="http://www.w3.org/2000/svg">
<path d="M30.3048 7.73337C29.3026 8.16816 28.2428 8.45559 27.1582 8.5867C28.3024 7.90313 29.1599 6.82775 29.5715 5.56004C28.4963 6.20012 27.3192 6.6511 26.0915 6.89337C25.2709 6.00346 24.1781 5.4111 22.9846 5.20917C21.791 5.00724 20.5642 5.20718 19.4966 5.77762C18.4289 6.34806 17.5808 7.25674 17.0852 8.36115C16.5896 9.46556 16.4746 10.7032 16.7582 11.88C14.5841 11.7701 12.4574 11.204 10.5164 10.2185C8.57534 9.23306 6.86331 7.85029 5.49152 6.16004C5.01037 7.00026 4.75754 7.9518 4.75818 8.92004C4.75648 9.81921 4.97714 10.7049 5.40052 11.4981C5.82391 12.2914 6.43687 12.9676 7.18485 13.4667C6.31549 13.443 5.4647 13.2098 4.70485 12.7867V12.8534C4.71137 14.1132 5.15284 15.3322 5.9546 16.304C6.75636 17.2758 7.86919 17.9409 9.10485 18.1867C8.62919 18.3315 8.13535 18.4078 7.63818 18.4134C7.29404 18.4093 6.95075 18.3781 6.61152 18.32C6.9634 19.4038 7.64435 20.3509 8.55962 21.0296C9.47489 21.7083 10.579 22.0848 11.7182 22.1067C9.79445 23.6204 7.41936 24.4465 4.97152 24.4534C4.52583 24.4548 4.0805 24.4281 3.63818 24.3734C6.13742 25.987 9.04993 26.8437 12.0248 26.84C14.0778 26.8614 16.1144 26.4734 18.0157 25.6988C19.917 24.9242 21.6449 23.7785 23.0985 22.3287C24.552 20.8788 25.7021 19.1539 26.4816 17.2546C27.261 15.3553 27.6542 13.3197 27.6382 11.2667C27.6382 11.04 27.6382 10.8 27.6382 10.56C28.6844 9.77978 29.5868 8.82327 30.3048 7.73337Z" fill="#111111"/>
</svg>
