<svg width="232" height="241" viewBox="0 0 232 241" fill="none" xmlns="http://www.w3.org/2000/svg">
<path d="M1.04761 149.158C12.2365 146.361 35.3286 141.825 44.1845 140.482C50.6579 139.53 57.1937 139.06 63.7373 139.075C65.6418 139.075 67.5622 139.075 69.4508 139.202C78.027 139.444 86.4979 141.149 94.495 144.243C100.383 146.614 106.446 149.38 112.54 152.446C118.2 155.239 124.373 156.853 130.68 157.187L132.268 157.313C141.282 157.806 150.26 158.83 159.153 160.379C165.725 161.402 172.172 163.107 178.388 165.468C182.388 167.143 184.609 169.514 185.387 172.944C185.593 173.86 185.054 175.093 184.165 177.021C183.538 178.439 182.767 179.79 181.864 181.051C180.935 182.43 179.663 183.547 178.172 184.292C176.682 185.037 175.023 185.385 173.357 185.302C172.491 185.3 171.626 185.232 170.77 185.097C166.675 184.528 162.311 184.117 157.026 183.817C150.678 183.437 144.202 183.169 137.981 182.9L132.506 182.663L130.014 182.552C126.443 182.394 122.745 182.22 119.063 182.189H118.904C117.372 182.22 115.844 182.368 114.333 182.631L112.746 182.853L101.542 186.013L111.953 192.92L113.651 193.647L117.603 195.227C120.777 196.523 123.951 197.866 127.125 199.115C132.07 200.907 137.251 201.971 142.504 202.276C145.091 202.497 147.773 202.608 150.44 202.608C155.839 202.583 161.23 202.209 166.58 201.486L169.262 201.154C172.437 200.759 175.785 200.348 179.086 199.716C187.212 198.402 194.779 194.761 200.861 189.237C204.574 185.517 208.999 182.577 213.875 180.593C216.534 179.481 219.373 178.86 222.255 178.759C223.663 178.754 225.062 178.978 226.397 179.423C227.771 179.897 229.05 180.608 230.175 181.525C230.422 181.715 230.628 181.953 230.781 182.225C230.934 182.496 231.03 182.796 231.063 183.106C231.135 184.425 230.803 185.736 230.112 186.864C229.42 187.993 228.402 188.886 227.191 189.427C227.191 189.427 232.381 190.375 230.905 196.27C230.82 197.375 230.514 198.452 230.004 199.438C229.494 200.423 228.791 201.297 227.937 202.007C222.033 207.712 215.24 212.122 207.908 216.784L204.734 218.854C202.766 220.134 200.845 221.493 198.988 222.789C197.719 223.706 196.401 224.638 195.1 225.508C189.86 229.135 183.725 231.266 177.357 231.671C173.783 231.969 170.228 232.459 166.707 233.141C165.215 233.41 163.676 233.678 162.184 233.9L157.677 234.579L152.17 235.417L145.694 236.444C141.235 237.171 136.632 237.914 132.125 238.499C127.363 239.115 122.253 239.605 116.095 240H114.921C110.572 240 106.382 238.514 101.415 236.27C89.6385 230.96 77.6084 225.46 65.626 219.897C61.9757 218.206 58.2936 216.42 54.7227 214.714C50.6122 212.722 46.3588 210.684 42.1213 208.74C37.5045 206.586 32.7793 204.672 27.9645 203.003C25.903 202.361 23.7717 201.969 21.6162 201.833C20.7909 201.833 20.0291 201.675 19.3149 201.565C18.6007 201.454 17.3311 201.328 14.0776 200.964C10.824 200.601 4.92009 199.968 1 199.478M172.167 129.925V0M172.167 43.951H74.0375M172.167 82.8131H74.0375M74.0216 129.925V0" stroke="url(#paint0_linear_200_174)" stroke-miterlimit="10"/>
<defs>
<linearGradient id="paint0_linear_200_174" x1="3.86995" y1="3.51477" x2="220.78" y2="220.425" gradientUnits="userSpaceOnUse">
<stop stop-color="#B1D5FF"/>
<stop offset="1" stop-color="#FF91FF"/>
</linearGradient>
</defs>
</svg>
