<svg width="189" height="280" viewBox="0 0 189 280" fill="none" xmlns="http://www.w3.org/2000/svg">
<g clip-path="url(#clip0_200_275)">
<path fill-rule="evenodd" clip-rule="evenodd" d="M56.4517 171.544H61.9237L65.4159 162.172C66.4973 159.107 67.7326 156.098 69.117 153.158C70.2935 150.93 71.7883 148.886 73.5543 147.089C75.2121 145.216 77.1896 143.653 79.3945 142.472C80.896 141.654 82.5617 141.181 84.2696 141.09C84.941 141.04 85.6107 141.207 86.1798 141.567C86.3887 141.738 86.5536 141.956 86.6609 142.204C86.7682 142.451 86.8148 142.721 86.7967 142.99C86.7967 144.015 85.8913 146.572 84.0806 150.551L80.1705 159.287C78.4593 163.147 77.6036 165.833 77.6036 167.345C77.5759 167.987 77.6941 168.627 77.9491 169.216C78.2041 169.805 78.5895 170.329 79.0761 170.748C80.0906 171.603 81.3814 172.059 82.7076 172.032C84.9446 171.918 87.0875 171.096 88.8263 169.683C91.0751 168.006 92.9688 165.899 94.3979 163.485H92.1394C91.2143 165.036 90.014 166.405 88.5975 167.525C87.5723 168.466 86.2634 169.04 84.8765 169.156C84.6247 169.176 84.3714 169.144 84.1332 169.06C83.8949 168.976 83.677 168.842 83.4936 168.669C83.1569 168.267 82.9925 167.748 83.0359 167.226C83.0293 166.649 83.8086 164.507 85.3739 160.799L89.4233 151.307C91.234 147.042 92.1394 144.343 92.1394 143.209C92.1806 142.588 92.0623 141.967 91.7959 141.404C91.5295 140.842 91.1237 140.357 90.6172 139.995C89.2247 139.193 87.6238 138.825 86.0206 138.94C81.4904 138.94 76.4628 141.686 70.9377 147.178L75.8383 133.934L90.4009 130.116L89.5936 127.037L77.187 130.289L81.3744 118.972H80.2302C77.8689 119.775 74.2508 120.226 69.3757 120.326L68.8185 121.917H70.3308C71.3674 121.83 72.4109 121.958 73.3951 122.295C73.6023 122.429 73.7692 122.616 73.8779 122.837C73.9866 123.057 74.0329 123.304 74.012 123.549C73.6894 125.026 73.2264 126.468 72.629 127.857L71.1416 131.874L60.2886 134.719L61.0959 137.799L69.7917 135.519L56.4517 171.544Z" fill="url(#paint0_linear_200_275)"/>
<path d="M137.517 151.821C137.493 152.097 137.697 152.339 137.972 152.363C138.247 152.386 138.49 152.183 138.513 151.907L137.517 151.821ZM24.8918 110.507C24.733 110.733 24.7874 111.044 25.0133 111.203C25.2392 111.362 25.5511 111.308 25.7099 111.082L24.8918 110.507ZM32.6434 208.376L32.9313 207.967L32.9309 207.967L32.6434 208.376ZM14.7255 141.202C14.7493 140.927 14.5456 140.685 14.2705 140.661C13.9954 140.637 13.7531 140.841 13.7292 141.116L14.7255 141.202ZM127.341 182.517C127.5 182.291 127.445 181.979 127.219 181.82C126.993 181.662 126.681 181.716 126.523 181.942L127.341 182.517ZM140.145 279.451L140.168 279.95L140.145 279.451ZM136.346 195.785L136.368 196.284L136.346 195.785ZM137.03 30.9022V31.4022V30.9022ZM151.954 45.8758L151.454 45.8741V45.8758H151.954ZM154.829 75.7731L155.329 75.7747V75.7731H154.829ZM139.906 90.6969V91.1969H139.907L139.906 90.6969ZM138.234 248.859L137.978 249.289C138.136 249.383 138.332 249.383 138.49 249.289L138.234 248.859ZM138.234 208.625L138.664 208.37C138.574 208.218 138.411 208.125 138.234 208.125C138.057 208.125 137.894 208.218 137.804 208.37L138.234 208.625ZM155.844 238.363L156.1 238.792C156.337 238.651 156.415 238.345 156.274 238.108L155.844 238.363ZM155.844 245.054L156.252 245.344C156.389 245.151 156.372 244.889 156.211 244.715C156.051 244.542 155.791 244.504 155.588 244.625L155.844 245.054ZM138.234 269.868L137.826 270.157C137.92 270.289 138.072 270.368 138.234 270.368C138.396 270.368 138.548 270.289 138.642 270.157L138.234 269.868ZM138.234 230.513L138.438 230.056C138.308 229.998 138.16 229.998 138.03 230.056L138.234 230.513ZM120.634 238.363L120.204 238.108C120.063 238.345 120.141 238.651 120.378 238.792L120.634 238.363ZM120.634 245.054L120.89 244.625C120.687 244.504 120.427 244.541 120.267 244.715C120.106 244.889 120.089 245.151 120.226 245.344L120.634 245.054ZM138.513 151.907C139.698 138.189 136.328 124.463 128.925 112.853L128.082 113.39C135.366 124.815 138.683 138.322 137.517 151.821L138.513 151.907ZM128.925 112.853C121.522 101.243 110.499 92.3961 97.562 87.6821L97.2196 88.6216C109.95 93.2604 120.797 101.966 128.082 113.39L128.925 112.853ZM97.562 87.6821C84.6246 82.968 70.4943 82.6494 57.3577 86.7754L57.6573 87.7295C70.5842 83.6693 84.4889 83.9829 97.2196 88.6216L97.562 87.6821ZM57.3577 86.7754C44.221 90.9014 32.8104 99.2421 24.8918 110.507L25.7099 111.082C33.5021 99.9971 44.7304 91.7896 57.6573 87.7295L57.3577 86.7754ZM133.597 196.416C143.685 184.799 150.014 170.397 151.752 155.109L150.758 154.997C149.043 170.083 142.797 184.296 132.842 195.761L133.597 196.416ZM151.752 155.109C153.489 139.822 150.553 124.367 143.33 110.782L142.447 111.252C149.575 124.658 152.473 139.91 150.758 154.997L151.752 155.109ZM143.33 110.782C136.107 97.1972 124.936 86.1202 111.291 79.0116L110.829 79.8985C124.295 86.9137 135.319 97.8451 142.447 111.252L143.33 110.782ZM111.291 79.0116C97.6459 71.903 82.1668 69.0966 66.8945 70.9623L67.0158 71.955C82.0874 70.1137 97.3631 72.8832 110.829 79.8985L111.291 79.0116ZM66.8945 70.9623C51.6223 72.8281 37.274 79.2785 25.7416 89.463L26.4035 90.2126C37.7845 80.1619 51.9442 73.7962 67.0158 71.955L66.8945 70.9623ZM25.7416 89.463C14.2091 99.6476 6.03386 113.088 2.2938 128.012L3.26381 128.255C6.95473 113.527 15.0225 100.263 26.4035 90.2126L25.7416 89.463ZM2.2938 128.012C-1.44626 142.937 -0.575565 158.644 4.79109 173.063L5.72829 172.715C0.432139 158.485 -0.427119 142.984 3.26381 128.255L2.2938 128.012ZM4.79109 173.063C10.1578 187.483 19.7684 199.937 32.3558 208.785L32.9309 207.967C20.5088 199.236 11.0244 186.945 5.72829 172.715L4.79109 173.063ZM32.3555 208.785C42.2851 215.778 53.7465 220.289 65.7789 221.939L65.9148 220.948C54.0408 219.32 42.7302 214.868 32.9313 207.967L32.3555 208.785ZM65.7789 221.939C77.8113 223.589 90.064 222.331 101.51 218.269L101.175 217.327C89.8802 221.335 77.7888 222.577 65.9148 220.948L65.7789 221.939ZM13.7292 141.116C12.5401 154.835 15.9068 168.563 23.3081 180.176L24.1513 179.638C16.8683 168.211 13.5553 154.702 14.7255 141.202L13.7292 141.116ZM23.3081 180.176C30.7094 191.788 41.7324 200.637 54.6706 205.351L55.013 204.412C42.2814 199.772 31.4344 191.065 24.1513 179.638L23.3081 180.176ZM54.6706 205.351C67.6088 210.066 81.7404 210.384 94.8776 206.256L94.5778 205.302C81.6505 209.364 67.7445 209.051 55.013 204.412L54.6706 205.351ZM94.8776 206.256C108.015 202.128 119.425 193.784 127.341 182.517L126.523 181.942C118.733 193.03 107.505 201.24 94.5778 205.302L94.8776 206.256ZM146.339 118.512C157.413 114.877 167.207 108.134 174.555 99.0869L173.778 98.4564C166.552 107.354 156.918 113.986 146.027 117.562L146.339 118.512ZM174.555 99.0869C181.903 90.0402 186.494 79.0714 187.782 67.4881L186.788 67.3775C185.521 78.7703 181.005 89.5586 173.778 98.4564L174.555 99.0869ZM187.782 67.4881C189.07 55.9047 187 44.1953 181.818 33.7555L180.923 34.2001C186.019 44.468 188.055 55.9848 186.788 67.3775L187.782 67.4881ZM181.818 33.7555C176.637 23.3158 168.563 14.5861 158.559 8.60706L158.046 9.46544C167.886 15.3461 175.827 23.9322 180.923 34.2001L181.818 33.7555ZM158.559 8.60706C148.555 2.62798 137.042 -0.348306 125.394 0.0329639L125.426 1.03243C136.883 0.657433 148.206 3.58475 158.046 9.46544L158.559 8.60706ZM125.394 0.0329639C113.745 0.414233 102.452 4.13698 92.8602 10.7575L93.4283 11.5805C102.862 5.06891 113.97 1.40742 125.426 1.03243L125.394 0.0329639ZM92.8602 10.7575C83.2684 17.3779 75.7827 26.6169 71.2951 37.3731L72.218 37.7581C76.6317 27.1789 83.9943 18.092 93.4283 11.5805L92.8602 10.7575ZM71.2951 37.3731C66.8076 48.1293 65.5077 59.949 67.5503 71.4234L68.5348 71.2481C66.5258 59.9625 67.8044 48.3373 72.218 37.7581L71.2951 37.3731ZM179.579 235.741C180.616 258.569 162.95 277.915 140.122 278.951L140.168 279.95C163.547 278.889 181.64 259.075 180.578 235.696L179.579 235.741ZM140.122 278.951C117.294 279.988 97.9485 262.323 96.9119 239.495L95.9129 239.54C96.9746 262.92 116.788 281.012 140.168 279.95L140.122 278.951ZM96.9119 239.495C95.8753 216.667 113.541 197.321 136.368 196.284L136.323 195.285C112.944 196.347 94.8512 216.161 95.9129 239.54L96.9119 239.495ZM136.368 196.284C159.196 195.248 178.542 212.913 179.579 235.741L180.578 235.696C179.516 212.316 159.703 194.224 136.323 195.285L136.368 196.284ZM97.0045 31.4022H137.03V30.4022H97.0045V31.4022ZM137.03 31.4022C138.928 31.4022 140.808 31.7769 142.561 32.5048L142.944 31.5812C141.07 30.8029 139.06 30.4022 137.03 30.4022V31.4022ZM142.561 32.5048C144.314 33.2326 145.906 34.2994 147.246 35.6439L147.955 34.9379C146.522 33.5002 144.819 32.3595 142.944 31.5812L142.561 32.5048ZM147.246 35.6439C148.586 36.9883 149.648 38.5841 150.37 40.3396L151.295 39.9592C150.523 38.082 149.388 36.3756 147.955 34.9379L147.246 35.6439ZM150.37 40.3396C151.092 42.0951 151.46 43.9759 151.454 45.8741L152.454 45.8774C152.461 43.8476 152.067 41.8365 151.295 39.9592L150.37 40.3396ZM151.454 45.8758C151.454 49.7012 149.934 53.3699 147.229 56.0749L147.936 56.782C150.829 53.8895 152.454 49.9664 152.454 45.8758H151.454ZM147.229 56.0749C144.524 58.7799 140.856 60.2996 137.03 60.2996V61.2996C141.121 61.2996 145.044 59.6746 147.936 56.782L147.229 56.0749ZM137.03 60.2996H110.436V61.2996H137.03V60.2996ZM110.436 61.3493H139.906V60.3493H110.436V61.3493ZM139.906 61.3493C143.731 61.3493 147.4 62.8689 150.105 65.5739L150.812 64.8668C147.919 61.9743 143.996 60.3493 139.906 60.3493V61.3493ZM150.105 65.5739C152.81 68.2789 154.329 71.9477 154.329 75.7731H155.329C155.329 71.6824 153.704 67.7593 150.812 64.8668L150.105 65.5739ZM154.329 75.7714C154.317 79.5934 152.793 83.2552 150.09 85.9577L150.797 86.6649C153.687 83.7756 155.316 79.8608 155.329 75.7747L154.329 75.7714ZM150.09 85.9577C147.388 88.6603 143.726 90.1842 139.904 90.1969L139.907 91.1969C143.993 91.1833 147.908 89.5541 150.797 86.6649L150.09 85.9577ZM139.906 90.1969H127.35V91.1969H139.906V90.1969ZM122.442 18.7543V30.9022H123.442V18.7543H122.442ZM109.936 18.7543V79.126H110.936V18.7543H109.936ZM138.734 248.859V208.625H137.734V248.859H138.734ZM137.804 208.879L155.414 238.618L156.274 238.108L138.664 208.37L137.804 208.879ZM155.588 237.933L137.978 248.43L138.49 249.289L156.1 238.792L155.588 237.933ZM138.49 255.98L156.1 245.484L155.588 244.625L137.978 255.121L138.49 255.98ZM155.436 244.765L137.826 269.578L138.642 270.157L156.252 245.344L155.436 244.765ZM138.734 269.868V255.551H137.734V269.868H138.734ZM138.03 230.97L155.64 238.819L156.048 237.906L138.438 230.056L138.03 230.97ZM137.804 208.37L120.204 238.108L121.064 238.617L138.664 208.879L137.804 208.37ZM120.378 238.792L137.978 249.289L138.49 248.43L120.89 237.933L120.378 238.792ZM138.49 255.121L120.89 244.625L120.378 245.484L137.978 255.98L138.49 255.121ZM120.226 245.344L137.826 270.157L138.642 269.578L121.042 244.765L120.226 245.344ZM138.03 230.056L120.43 237.906L120.838 238.819L138.438 230.969L138.03 230.056Z" fill="url(#paint1_linear_200_275)"/>
</g>
<defs>
<linearGradient id="paint0_linear_200_275" x1="-28.6147" y1="49" x2="240.037" y2="180.851" gradientUnits="userSpaceOnUse">
<stop stop-color="#2D84EB"/>
<stop offset="1" stop-color="#9A1AFF"/>
</linearGradient>
<linearGradient id="paint1_linear_200_275" x1="0.754491" y1="0.859166" x2="258.23" y2="173.568" gradientUnits="userSpaceOnUse">
<stop stop-color="#2D84EB"/>
<stop offset="1" stop-color="#9A1AFF"/>
</linearGradient>
<clipPath id="clip0_200_275">
<rect width="188.139" height="280" fill="white"/>
</clipPath>
</defs>
</svg>
