<svg width="142" height="120" viewBox="0 0 142 120" fill="none" xmlns="http://www.w3.org/2000/svg">
<g clip-path="url(#clip0_200_211)">
<path d="M60.0001 10.5353C59.7239 10.5352 59.5001 10.7591 59.5 11.0352C59.5 11.3114 59.7238 11.5352 60 11.5353L60.0001 10.5353ZM108.41 57.6634C108.424 57.9392 108.658 58.152 108.934 58.1386C109.21 58.1252 109.423 57.8908 109.409 57.615L108.41 57.6634ZM98.1584 91.4788C98.334 91.2657 98.3037 90.9505 98.0906 90.7749C97.8775 90.5993 97.5624 90.6297 97.3867 90.8428L98.1584 91.4788ZM84.3523 101.921C84.1137 102.06 84.0329 102.366 84.1719 102.605C84.3109 102.843 84.617 102.924 84.8556 102.785L84.3523 101.921ZM35.6553 18.0871C35.894 17.9483 35.975 17.6423 35.8362 17.4036C35.6974 17.1648 35.3914 17.0838 35.1526 17.2226L35.6553 18.0871ZM59.9998 109.465C60.276 109.465 60.4999 109.241 60.5 108.965C60.5001 108.689 60.2764 108.465 60.0002 108.465L59.9998 109.465ZM97.7726 57.6392V57.1392H97.2726V57.6392H97.7726ZM97.7726 119.608H97.2726V120.108H97.7726V119.608ZM141.443 119.608V120.108H141.943V119.608H141.443ZM141.443 73.3255H141.943V72.8255H141.443V73.3255ZM125.757 73.3255H125.257V73.8255H125.757V73.3255ZM125.757 57.6392H126.257V57.1392H125.757V57.6392ZM124.965 81.4353H124.465H124.965ZM60 11.5353C72.4489 11.5366 84.4201 16.3276 93.4327 24.9153L94.1225 24.1913C84.924 15.4265 72.7058 10.5367 60.0001 10.5353L60 11.5353ZM93.4327 24.9153C102.445 33.503 107.808 45.229 108.41 57.6634L109.409 57.615C108.795 44.9241 103.321 32.9562 94.1225 24.1913L93.4327 24.9153ZM97.3867 90.8428C93.7316 95.2776 89.3183 99.0284 84.3523 101.921L84.8556 102.785C89.9239 99.833 94.428 96.0049 98.1584 91.4788L97.3867 90.8428ZM97.4557 105.723C87.1489 114.166 74.292 118.879 60.9704 119.098L60.9868 120.098C74.5338 119.875 87.6083 115.082 98.0894 106.497L97.4557 105.723ZM60.9704 119.098C47.6488 119.317 34.644 115.028 24.0655 106.928L23.4576 107.722C34.2151 115.959 47.4399 120.32 60.9868 120.098L60.9704 119.098ZM24.0655 106.928C13.487 98.8286 5.95528 87.3924 2.69208 74.4748L1.72254 74.7197C5.04095 87.8558 12.7001 99.4856 23.4576 107.722L24.0655 106.928ZM2.69208 74.4748C-0.57112 61.5572 0.62561 47.916 6.08815 35.7639L5.17606 35.3539C-0.378894 47.7116 -1.59587 61.5836 1.72254 74.7197L2.69208 74.4748ZM6.08815 35.7639C11.5507 23.6118 20.9586 13.6617 32.7859 7.5275L32.3255 6.63979C20.2981 12.8778 10.731 22.9963 5.17606 35.3539L6.08815 35.7639ZM32.7859 7.5275C44.6131 1.39329 58.166 -0.565145 71.246 1.96986L71.4362 0.988125C58.1349 -1.58977 44.3528 0.401806 32.3255 6.63979L32.7859 7.5275ZM71.246 1.96986C84.326 4.50486 96.1659 11.3846 104.845 21.4931L105.604 20.8417C96.7777 10.5622 84.7375 3.56602 71.4362 0.988125L71.246 1.96986ZM104.845 21.4931C113.524 31.6017 118.534 44.346 119.061 57.659L120.06 57.6194C119.524 44.0812 114.43 31.1213 105.604 20.8417L104.845 21.4931ZM35.1526 17.2226C25.75 22.6892 18.4109 31.1019 14.2706 41.1592L15.1953 41.5399C19.2519 31.6858 26.4427 23.4432 35.6553 18.0871L35.1526 17.2226ZM14.2706 41.1592C10.1303 51.2165 9.41962 62.358 12.2485 72.8599L13.2141 72.5998C10.4424 62.3102 11.1387 51.3939 15.1953 41.5399L14.2706 41.1592ZM12.2485 72.8599C15.0774 83.3617 21.2882 92.6387 29.92 99.2557L30.5284 98.462C22.071 91.9788 15.9858 82.8894 13.2141 72.5998L12.2485 72.8599ZM29.92 99.2557C38.5518 105.873 49.1236 109.461 59.9998 109.465L60.0002 108.465C49.3438 108.461 38.9857 104.945 30.5284 98.462L29.92 99.2557ZM97.2726 57.6392V119.608H98.2726V57.6392H97.2726ZM97.7726 120.108H141.443V119.108H97.7726V120.108ZM141.943 119.608V73.3255H140.943V119.608H141.943ZM141.443 72.8255H125.757V73.8255H141.443V72.8255ZM126.257 73.3255V57.6392H125.257V73.3255H126.257ZM125.757 57.1392H97.7726V58.1392H125.757V57.1392ZM125.411 57.9927L141.097 73.679L141.805 72.9719L126.118 57.2856L125.411 57.9927ZM113.027 86.7666H126.196V85.7666H113.027V86.7666ZM126.196 86.7666C127.44 86.7666 128.449 87.7753 128.449 89.0196H129.449C129.449 87.223 127.993 85.7666 126.196 85.7666V86.7666ZM128.449 89.0196V99.5608H129.449V89.0196H128.449ZM128.449 99.5608C128.449 100.805 127.44 101.814 126.196 101.814V102.814C127.993 102.814 129.449 101.357 129.449 99.5608H128.449ZM126.196 101.814H113.027V102.814H126.196V101.814ZM113.027 101.814C111.783 101.814 110.775 100.805 110.775 99.5608H109.775C109.775 101.357 111.231 102.814 113.027 102.814V101.814ZM110.775 99.5608V89.0196H109.775V99.5608H110.775ZM110.775 89.0196C110.775 87.7753 111.783 86.7666 113.027 86.7666V85.7666C111.231 85.7666 109.775 87.223 109.775 89.0196H110.775ZM114.751 86.2745V81.4353H113.751V86.2745H114.751ZM114.751 81.4353C114.751 80.1471 115.263 78.9118 116.174 78.0009L115.466 77.2938C114.368 78.3922 113.751 79.8819 113.751 81.4353H114.751ZM116.174 78.0009C117.084 77.0901 118.32 76.5784 119.608 76.5784V75.5784C118.055 75.5784 116.565 76.1955 115.466 77.2938L116.174 78.0009ZM119.608 76.5784C120.896 76.5784 122.131 77.0901 123.042 78.0009L123.749 77.2938C122.651 76.1955 121.161 75.5784 119.608 75.5784V76.5784ZM123.042 78.0009C123.953 78.9118 124.465 80.1471 124.465 81.4353H125.465C125.465 79.8819 124.848 78.3922 123.749 77.2938L123.042 78.0009ZM124.465 81.4353V86.2745H125.465V81.4353H124.465Z" fill="url(#paint0_linear_200_211)"/>
<path fill-rule="evenodd" clip-rule="evenodd" d="M44.4941 79.7333H48.8079L51.6079 72.3686C52.4476 69.9455 53.4082 67.566 54.4863 65.2392C55.4165 63.4847 56.5946 61.8734 57.9843 60.4549C59.295 58.9826 60.8532 57.751 62.5883 56.8157C63.7727 56.173 65.0857 55.8032 66.4314 55.7333C66.9596 55.6947 67.4866 55.8237 67.9373 56.1019C68.1043 56.2349 68.2366 56.4064 68.3227 56.6018C68.4088 56.7971 68.4461 57.0105 68.4314 57.2235C68.4314 58.0601 67.7177 60.047 66.2902 63.1843L63.2079 70.0706C61.8536 73.1137 61.1765 75.2313 61.1765 76.4235C61.1474 76.9359 61.237 77.4481 61.4384 77.9201C61.6397 78.3922 61.9473 78.8114 62.3373 79.1451C63.1356 79.8213 64.1541 80.1813 65.2 80.1568C66.9643 80.071 68.6548 79.4223 70.0236 78.3058C71.7956 76.9851 73.2862 75.3239 74.4079 73.4196H72.6353C71.9018 74.6412 70.9563 75.7221 69.8432 76.6117C69.0305 77.3505 67.9965 77.8 66.902 77.8902C66.7035 77.9062 66.5038 77.8802 66.316 77.814C66.1282 77.7478 65.9564 77.6428 65.8118 77.5058C65.5523 77.1859 65.4234 76.7796 65.451 76.3686C65.451 75.9189 66.068 74.23 67.302 71.3019L70.4941 63.8196C71.9216 60.4627 72.6353 58.3372 72.6353 57.4431C72.6684 56.9524 72.5755 56.4613 72.3655 56.0166C72.1555 55.5719 71.8353 55.1882 71.4353 54.9019C70.3397 54.2609 69.079 53.958 67.8118 54.0313C64.2353 54.0261 60.2693 56.1934 55.9138 60.5333L59.7772 50.0984L71.2714 47.0851L70.6349 44.6573L60.8411 47.2249L64.149 38.2902H63.2392C61.3778 38.9281 58.5255 39.2862 54.6824 39.3647L54.251 40.6117H55.4432C56.2578 40.5422 57.0779 40.6437 57.851 40.9098C58.0143 41.0147 58.1459 41.1621 58.2316 41.3363C58.3173 41.5104 58.3538 41.7046 58.3373 41.898C58.0836 43.0614 57.7212 44.1984 57.2549 45.2941L56.0767 48.4739L47.5332 50.7136L48.1697 53.1414L55.0119 51.3476L44.4941 79.7333Z" fill="url(#paint1_linear_200_211)"/>
</g>
<defs>
<linearGradient id="paint0_linear_200_211" x1="0.575495" y1="0.543308" x2="117.824" y2="139.272" gradientUnits="userSpaceOnUse">
<stop stop-color="#2D84EB"/>
<stop offset="1" stop-color="#9A1AFF"/>
</linearGradient>
<linearGradient id="paint1_linear_200_211" x1="4.26574" y1="10" x2="139.122" y2="76.0366" gradientUnits="userSpaceOnUse">
<stop stop-color="#2D84EB"/>
<stop offset="1" stop-color="#9A1AFF"/>
</linearGradient>
<clipPath id="clip0_200_211">
<rect width="141.843" height="120" fill="white"/>
</clipPath>
</defs>
</svg>
