<svg width="148" height="132" viewBox="0 0 148 132" fill="none" xmlns="http://www.w3.org/2000/svg">
<path d="M8.81816 65.9952C8.81816 66.2713 9.04202 66.4952 9.31816 66.4952C9.5943 66.4952 9.81816 66.2713 9.81816 65.9952H8.81816ZM74 1.5C74.2761 1.5 74.5 1.27614 74.5 1C74.5 0.723858 74.2761 0.5 74 0.5V1.5ZM138.682 65.9952L139.069 65.6783C138.974 65.5623 138.832 65.4951 138.682 65.4952C138.532 65.4952 138.39 65.5625 138.295 65.6785L138.682 65.9952ZM74 130.5C73.7239 130.5 73.5 130.724 73.5 131C73.5 131.276 73.7239 131.5 74 131.5V130.5ZM1.38681 55.5343C1.21184 55.3207 0.896809 55.2894 0.683178 55.4643C0.469547 55.6393 0.438212 55.9543 0.613188 56.168L1.38681 55.5343ZM9.30855 65.9952L8.92174 66.312C9.01668 66.4279 9.15859 66.4951 9.30841 66.4952C9.45824 66.4952 9.60018 66.4281 9.69519 66.3122L9.30855 65.9952ZM18.0133 56.1682C18.1884 55.9547 18.1573 55.6396 17.9438 55.4645C17.7302 55.2894 17.4152 55.3206 17.2401 55.5341L18.0133 56.1682ZM146.613 76.4657C146.788 76.6793 147.103 76.7106 147.317 76.5356C147.53 76.3606 147.562 76.0456 147.387 75.832L146.613 76.4657ZM129.986 75.8322C129.811 76.0459 129.843 76.3609 130.057 76.5358C130.27 76.7107 130.585 76.6792 130.76 76.4655L129.986 75.8322ZM9.81816 65.9952C9.81816 48.8892 16.5807 32.4844 28.6174 20.3893L27.9086 19.684C15.6849 31.9669 8.81816 48.6256 8.81816 65.9952H9.81816ZM28.6174 20.3893C40.654 8.29442 56.9787 1.5 74 1.5V0.5C56.7119 0.5 40.1324 7.40096 27.9086 19.684L28.6174 20.3893ZM138.182 65.9952C138.183 74.466 136.524 82.854 133.299 90.6802L134.223 91.0612C137.498 83.114 139.183 74.5965 139.182 65.9951L138.182 65.9952ZM133.299 90.6802C130.074 98.5064 125.346 105.617 119.386 111.607L120.095 112.313C126.147 106.23 130.948 99.0084 134.223 91.0612L133.299 90.6802ZM119.386 111.607C113.426 117.597 106.35 122.348 98.5627 125.59L98.947 126.513C106.856 123.221 114.042 118.396 120.095 112.313L119.386 111.607ZM98.5627 125.59C90.7754 128.832 82.4289 130.5 74 130.5V131.5C82.561 131.5 91.038 129.805 98.947 126.513L98.5627 125.59ZM0.613188 56.168L8.92174 66.312L9.69536 65.6784L1.38681 55.5343L0.613188 56.168ZM9.69519 66.3122L18.0133 56.1682L17.2401 55.5341L8.92192 65.6781L9.69519 66.3122ZM147.387 75.832L139.069 65.6783L138.295 66.312L146.613 76.4657L147.387 75.832ZM138.295 65.6785L129.986 75.8322L130.76 76.4655L139.069 66.3118L138.295 65.6785Z" fill="url(#paint0_linear_317_140)"/>
<path d="M109.562 30.4376C129.479 50.3543 129.479 82.6457 109.562 102.562L110.27 103.27C130.577 82.9623 130.577 50.0377 110.27 29.7304L109.562 30.4376ZM109.562 102.562C89.6457 122.479 57.3543 122.479 37.4376 102.562L36.7304 103.27C57.0377 123.577 89.9623 123.577 110.27 103.27L109.562 102.562ZM37.4376 102.562C17.5208 82.6457 17.5208 50.3543 37.4376 30.4376L36.7304 29.7304C16.4232 50.0377 16.4232 82.9623 36.7304 103.27L37.4376 102.562ZM37.4376 30.4376C57.3543 10.5208 89.6457 10.5208 109.562 30.4376L110.27 29.7304C89.9623 9.42318 57.0377 9.42318 36.7304 29.7304L37.4376 30.4376Z" fill="url(#paint1_linear_317_140)"/>
<path fill-rule="evenodd" clip-rule="evenodd" d="M56.5728 88.0336H61.2819L64.33 80.0023C65.2487 77.3567 66.3003 74.759 67.4809 72.2194C68.4963 70.3041 69.7824 68.545 71.2996 66.9965C72.7262 65.3849 74.428 64.0397 76.3255 63.0237C77.6177 62.3189 79.0512 61.9123 80.5209 61.8336C81.0988 61.791 81.675 61.9351 82.1648 62.2446C82.3461 62.3883 82.4893 62.5743 82.5819 62.7863C82.6744 62.9983 82.7135 63.2297 82.6957 63.4604C82.6957 64.3794 81.9194 66.5513 80.3668 69.9761L77.0019 77.4936C75.5207 80.8157 74.7843 83.1189 74.7843 84.4204C74.7564 84.9702 74.8519 85.5194 75.0637 86.0275C75.2756 86.5357 75.5985 86.99 76.0087 87.3572C76.884 88.0946 77.9982 88.4873 79.1424 88.4617C81.0652 88.365 82.907 87.6571 84.3996 86.441C86.3368 84.9997 87.9669 83.1863 89.1943 81.1068H87.2507C86.4573 82.4433 85.4239 83.6218 84.2026 84.5831C83.3372 85.4046 82.2223 85.9138 81.0347 86.03C80.8181 86.0454 80.6007 86.0161 80.396 85.9439C80.1913 85.8717 80.0036 85.7583 79.8445 85.6105C79.5548 85.2647 79.4133 84.8186 79.4507 84.369C79.4507 83.8724 80.1271 82.023 81.4713 78.8379L84.9561 70.6697C86.5087 66.9994 87.285 64.6762 87.285 63.7001C87.3197 63.1667 87.2186 62.6332 86.9909 62.1495C86.7633 61.6658 86.4167 61.2478 85.9835 60.9346C84.7862 60.2302 83.4058 59.8993 82.0193 59.9842C78.1207 59.9842 73.794 62.3473 69.0392 67.0736L73.2585 55.6814L85.7945 52.395L85.0997 49.7447L74.4204 52.5444L78.0294 42.8H77.0361C75.0041 43.4907 71.8903 43.8789 67.6949 43.9645L67.224 45.3344H68.5169C69.409 45.2581 70.3072 45.3689 71.154 45.6598C71.3309 45.7736 71.4737 45.9332 71.5671 46.1217C71.6606 46.3101 71.7013 46.5203 71.6848 46.73C71.4097 48.0034 71.014 49.2476 70.5033 50.446L69.2204 53.9076L59.8803 56.3561L60.5751 59.0065L68.0576 57.0448L56.5728 88.0336Z" fill="url(#paint2_linear_317_140)"/>
<defs>
<linearGradient id="paint0_linear_317_140" x1="32.5165" y1="16.7221" x2="137.905" y2="122.284" gradientUnits="userSpaceOnUse">
<stop stop-color="#2D84EB"/>
<stop offset="1" stop-color="#9A1AFF"/>
</linearGradient>
<linearGradient id="paint1_linear_317_140" x1="22.1342" y1="15.1324" x2="124.869" y2="117.868" gradientUnits="userSpaceOnUse">
<stop stop-color="#2D84EB"/>
<stop offset="1" stop-color="#9A1AFF"/>
</linearGradient>
<linearGradient id="paint2_linear_317_140" x1="9.66539" y1="8.91661" x2="159.736" y2="82.3837" gradientUnits="userSpaceOnUse">
<stop stop-color="#2D84EB"/>
<stop offset="1" stop-color="#9A1AFF"/>
</linearGradient>
</defs>
</svg>
