<svg width="236" height="236" viewBox="0 0 236 236" fill="none" xmlns="http://www.w3.org/2000/svg">
<path d="M166.136 200.846C165.898 200.985 165.817 201.291 165.955 201.53C166.094 201.769 166.4 201.85 166.639 201.711L166.136 200.846ZM118 21.2027C117.724 21.2027 117.5 21.4265 117.5 21.7026C117.5 21.9788 117.724 22.2027 118 22.2027L118 21.2027ZM69.8638 35.1535C70.1025 35.0147 70.1835 34.7087 70.0447 34.47C69.9059 34.2313 69.5999 34.1502 69.3612 34.289L69.8638 35.1535ZM118 214.797C118.276 214.797 118.5 214.573 118.5 214.297C118.5 214.021 118.276 213.797 118 213.797L118 214.797ZM166.639 201.711C185.04 191.013 199.403 174.549 207.504 154.866L206.58 154.485C198.562 173.965 184.347 190.259 166.136 200.846L166.639 201.711ZM207.504 154.866C215.606 135.183 216.996 113.379 211.458 92.8271L210.492 93.0873C215.973 113.427 214.598 135.006 206.58 154.485L207.504 154.866ZM211.458 92.8271C205.92 72.2752 193.764 54.1211 176.87 41.1737L176.261 41.9674C192.981 54.781 205.012 72.7476 210.492 93.0873L211.458 92.8271ZM176.87 41.1737C159.975 28.2263 139.285 21.2073 118 21.2027L118 22.2027C139.065 22.2072 159.542 29.1537 176.261 41.9674L176.87 41.1737ZM200.536 35.4603C246.121 81.0457 246.121 154.954 200.536 200.54L201.243 201.247C247.219 155.271 247.219 80.7291 201.243 34.7532L200.536 35.4603ZM200.536 200.54C154.95 246.125 81.0417 246.125 35.4563 200.54L34.7492 201.247C80.7251 247.223 155.267 247.223 201.243 201.247L200.536 200.54ZM35.4563 200.54C-10.1291 154.954 -10.1291 81.0457 35.4563 35.4603L34.7492 34.7532C-11.2268 80.7291 -11.2268 155.271 34.7492 201.247L35.4563 200.54ZM35.4563 35.4603C81.0417 -10.1251 154.95 -10.1251 200.536 35.4603L201.243 34.7532C155.267 -11.2227 80.7251 -11.2227 34.7492 34.7532L35.4563 35.4603ZM69.3612 34.289C50.9601 44.9872 36.5975 61.4513 28.4957 81.1341L29.4204 81.5147C37.4385 62.0353 51.6528 45.7412 69.8638 35.1535L69.3612 34.289ZM28.4957 81.1341C20.3938 100.817 19.0043 122.621 24.5421 143.173L25.5077 142.913C20.0271 122.573 21.4022 100.994 29.4204 81.5147L28.4957 81.1341ZM24.5421 143.173C30.08 163.725 42.2364 181.879 59.1307 194.826L59.7389 194.033C43.0192 181.219 30.9883 163.252 25.5077 142.913L24.5421 143.173ZM59.1307 194.826C76.0249 207.774 96.7151 214.793 118 214.797L118 213.797C96.9352 213.793 76.4587 206.846 59.7389 194.033L59.1307 194.826Z" fill="url(#paint0_linear_200_265)"/>
<path fill-rule="evenodd" clip-rule="evenodd" d="M87.5048 156.793H95.9885L101.48 142.325C103.135 137.559 105.029 132.879 107.156 128.304C108.985 124.853 111.302 121.684 114.036 118.895C116.606 115.991 119.671 113.568 123.09 111.738C125.418 110.468 128 109.735 130.648 109.593C131.689 109.517 132.727 109.776 133.61 110.334C133.936 110.593 134.194 110.928 134.361 111.31C134.528 111.692 134.598 112.109 134.566 112.524C134.566 114.18 133.167 118.093 130.37 124.263L124.308 137.806C121.64 143.79 120.313 147.94 120.313 150.284C120.263 151.275 120.435 152.264 120.817 153.18C121.198 154.095 121.78 154.913 122.519 155.575C124.096 156.903 126.103 157.611 128.165 157.565C131.629 157.391 134.947 156.115 137.636 153.924C141.126 151.328 144.062 148.061 146.273 144.315H142.772C141.343 146.722 139.481 148.845 137.281 150.577C135.722 152.057 133.713 152.975 131.574 153.184C131.183 153.212 130.792 153.159 130.423 153.029C130.054 152.899 129.716 152.694 129.43 152.428C128.908 151.805 128.653 151.002 128.72 150.192C128.72 149.297 129.939 145.965 132.36 140.227L138.638 125.512C141.435 118.9 142.834 114.715 142.834 112.956C142.896 111.995 142.714 111.034 142.304 110.163C141.894 109.291 141.269 108.538 140.489 107.974C138.332 106.705 135.845 106.109 133.347 106.262C126.324 106.262 118.529 110.519 109.963 119.033L117.565 98.5102L140.148 92.5896L138.897 87.815L119.658 92.8587L126.159 75.3041H124.37C120.709 76.5483 115.1 77.2476 107.542 77.4019L106.693 79.8698H109.022C110.63 79.7323 112.248 79.932 113.773 80.456C114.092 80.661 114.349 80.9485 114.518 81.288C114.686 81.6275 114.759 82.0063 114.73 82.3841C114.234 84.678 113.521 86.9195 112.601 89.0785L110.29 95.3146L93.4635 99.7258L94.7152 104.5L108.195 100.966L87.5048 156.793Z" fill="url(#paint1_linear_200_265)"/>
<defs>
<linearGradient id="paint0_linear_200_265" x1="1.07259" y1="1.07271" x2="234.927" y2="234.927" gradientUnits="userSpaceOnUse">
<stop stop-color="#2D84EB"/>
<stop offset="1" stop-color="#9A1AFF"/>
</linearGradient>
<linearGradient id="paint1_linear_200_265" x1="2.99991" y1="14.2622" x2="273.355" y2="146.615" gradientUnits="userSpaceOnUse">
<stop stop-color="#2D84EB"/>
<stop offset="1" stop-color="#9A1AFF"/>
</linearGradient>
</defs>
</svg>
