<svg width="264" height="236" viewBox="0 0 264 236" fill="none" xmlns="http://www.w3.org/2000/svg">
<path d="M191.098 136.529L190.62 136.381C190.545 136.625 190.666 136.886 190.9 136.988C191.134 137.089 191.407 136.997 191.533 136.775L191.098 136.529ZM193.825 121.032L193.657 120.561C193.467 120.629 193.336 120.805 193.326 121.007L193.825 121.032ZM218.095 112.345L218.263 112.816C218.492 112.734 218.629 112.499 218.587 112.259L218.095 112.345ZM214.867 93.8252L215.359 93.7393C215.318 93.4999 215.11 93.3252 214.867 93.3252V93.8252ZM189.079 93.8252L188.619 94.021C188.697 94.2054 188.878 94.3252 189.079 94.3252V93.8252ZM181.242 80.3435L180.809 80.0931C180.708 80.2677 180.722 80.4859 180.844 80.6465L181.242 80.3435ZM194.222 57.9147L194.655 58.1651C194.776 57.956 194.73 57.6902 194.546 57.5337L194.222 57.9147ZM179.913 45.7534L180.237 45.3724C180.049 45.2128 179.773 45.2139 179.586 45.375L179.913 45.7534ZM160.322 62.675L160.092 63.1192C160.274 63.2129 160.494 63.1869 160.648 63.0533L160.322 62.675ZM145.701 57.3414L145.208 57.4244C145.242 57.6244 145.393 57.7843 145.591 57.829L145.701 57.3414ZM141.386 31.6985L141.879 31.6155C141.839 31.3748 141.63 31.1985 141.386 31.1985V31.6985ZM122.71 31.6985V31.1985C122.466 31.1985 122.258 31.3738 122.217 31.6137L122.71 31.6985ZM118.308 57.2719L118.417 57.7599C118.615 57.7157 118.766 57.5564 118.801 57.3567L118.308 57.2719ZM103.843 62.4838L103.517 62.863C103.671 62.9953 103.89 63.0214 104.07 62.9292L103.843 62.4838ZM84.3208 45.7013L84.6468 45.3222C84.461 45.1625 84.187 45.1609 83.9994 45.3183L84.3208 45.7013ZM69.9768 57.741L69.6554 57.358C69.47 57.5135 69.4227 57.7795 69.543 57.9895L69.9768 57.741ZM82.8536 80.2219L83.251 80.5253C83.3731 80.3654 83.3875 80.148 83.2875 79.9734L82.8536 80.2219ZM74.9998 93.8078L74.9971 94.3078C75.1997 94.3089 75.3829 94.1877 75.4611 94.0008L74.9998 93.8078ZM49.2117 93.6688L49.2144 93.1688C48.9705 93.1675 48.7612 93.3424 48.7192 93.5827L49.2117 93.6688ZM46.0011 112.032L45.5086 111.946C45.467 112.184 45.6017 112.418 45.8287 112.502L46.0011 112.032ZM70.1667 120.91L70.6662 120.888C70.6574 120.687 70.5285 120.51 70.3391 120.441L70.1667 120.91ZM72.8077 136.337L73.1281 136.721C73.2823 136.592 73.3445 136.384 73.286 136.192L72.8077 136.337ZM52.9574 152.911L52.6369 152.528C52.451 152.683 52.4031 152.949 52.5231 153.159L52.9574 152.911ZM62.2611 169.208L61.8269 169.455C61.948 169.668 62.2046 169.761 62.4338 169.677L62.2611 169.208ZM86.4267 160.312L86.7926 159.972C86.6553 159.824 86.443 159.774 86.254 159.843L86.4267 160.312ZM98.3886 170.267L98.8807 170.356C98.9168 170.156 98.8284 169.955 98.6572 169.846L98.3886 170.267ZM93.7799 195.806L93.2879 195.717C93.2448 195.956 93.3794 196.191 93.607 196.275L93.7799 195.806ZM111.317 202.269L111.144 202.738C111.373 202.822 111.629 202.729 111.75 202.518L111.317 202.269ZM124.28 179.771L124.714 180.02C124.803 179.865 124.803 179.675 124.713 179.52C124.624 179.366 124.459 179.271 124.28 179.271V179.771ZM124.177 179.771V179.271C123.913 179.271 123.694 179.476 123.678 179.739C123.661 180.002 123.852 180.233 124.114 180.267L124.177 179.771ZM139.833 179.771L140.268 179.524C140.168 179.348 139.971 179.249 139.77 179.274L139.833 179.771ZM152.623 202.356L152.188 202.602C152.309 202.815 152.566 202.91 152.796 202.825L152.623 202.356ZM170.022 195.928L170.196 196.397C170.422 196.313 170.557 196.079 170.515 195.841L170.022 195.928ZM165.517 170.389L166.01 170.302C165.967 170.063 165.76 169.889 165.517 169.889V170.389ZM165.414 170.389L165.142 169.969C164.956 170.089 164.871 170.318 164.934 170.53C164.997 170.743 165.192 170.889 165.414 170.889V170.389ZM171.662 165.785L171.983 166.169L171.984 166.167L171.662 165.785ZM177.427 160.26H177.927C177.927 160.054 177.801 159.869 177.609 159.794C177.417 159.72 177.198 159.77 177.059 159.922L177.427 160.26ZM177.427 160.365H176.927C176.927 160.574 177.057 160.761 177.253 160.833L177.427 160.365ZM201.593 169.329L201.419 169.798C201.648 169.883 201.905 169.79 202.026 169.579L201.593 169.329ZM210.948 153.068L211.382 153.317C211.503 153.107 211.456 152.841 211.271 152.685L210.948 153.068ZM191.167 136.407L191.489 136.025C191.376 135.929 191.225 135.889 191.079 135.915C190.933 135.941 190.806 136.031 190.732 136.16L191.167 136.407ZM15.3114 117.991C15.3114 118.267 15.5353 118.491 15.8114 118.491C16.0876 118.491 16.3114 118.267 16.3114 117.991H15.3114ZM132.048 1.5C132.324 1.5 132.548 1.27614 132.548 1C132.548 0.723858 132.324 0.5 132.048 0.5V1.5ZM248.284 117.991L248.671 117.675C248.576 117.559 248.434 117.491 248.284 117.491C248.134 117.491 247.992 117.559 247.897 117.675L248.284 117.991ZM132.048 234.5C131.772 234.5 131.548 234.724 131.548 235C131.548 235.276 131.772 235.5 132.048 235.5V234.5ZM1.25035 99.4155C1.07554 99.2018 0.760542 99.1702 0.546771 99.345C0.332999 99.5198 0.30141 99.8348 0.476214 100.049L1.25035 99.4155ZM15.7942 117.991L15.4071 118.308C15.502 118.424 15.644 118.491 15.794 118.491C15.944 118.491 16.086 118.424 16.181 118.308L15.7942 117.991ZM31.1292 100.049C31.3041 99.8351 31.2727 99.5201 31.059 99.3452C30.8454 99.1702 30.5303 99.2017 30.3554 99.4153L31.1292 100.049ZM262.845 136.584C263.02 136.798 263.335 136.83 263.549 136.655C263.763 136.48 263.794 136.165 263.619 135.951L262.845 136.584ZM232.966 135.952C232.791 136.165 232.823 136.48 233.037 136.655C233.251 136.83 233.566 136.798 233.741 136.584L232.966 135.952ZM132.048 133.419L131.791 133.847C131.949 133.942 132.147 133.942 132.305 133.847L132.048 133.419ZM132.048 78.1545L132.479 77.901C132.389 77.7483 132.225 77.6545 132.048 77.6545C131.871 77.6545 131.707 77.7483 131.617 77.901L132.048 78.1545ZM156.075 118.999L156.333 119.428C156.568 119.286 156.645 118.982 156.506 118.745L156.075 118.999ZM156.075 127.886L156.484 128.174C156.62 127.981 156.602 127.719 156.442 127.546C156.281 127.373 156.021 127.336 155.818 127.457L156.075 127.886ZM132.048 161.99L131.639 162.278C131.733 162.411 131.885 162.49 132.048 162.49C132.21 162.49 132.363 162.411 132.457 162.278L132.048 161.99ZM132.048 108.228L132.252 107.771C132.122 107.713 131.973 107.713 131.843 107.771L132.048 108.228ZM108.02 118.999L107.589 118.745C107.45 118.982 107.528 119.286 107.763 119.428L108.02 118.999ZM108.02 127.886L108.278 127.457C108.075 127.336 107.815 127.373 107.654 127.546C107.493 127.719 107.476 127.981 107.612 128.174L108.02 127.886ZM191.576 136.676C193.141 131.606 194.064 126.358 194.325 121.056L193.326 121.007C193.069 126.226 192.16 131.391 190.62 136.381L191.576 136.676ZM193.994 121.502L218.263 112.816L217.926 111.874L193.657 120.561L193.994 121.502ZM218.587 112.259L215.359 93.7393L214.374 93.911L217.602 112.431L218.587 112.259ZM214.867 93.3252H189.079V94.3252H214.867V93.3252ZM189.539 93.6293C187.478 88.7868 184.824 84.2219 181.64 80.0406L180.844 80.6465C183.978 84.7617 186.59 89.2546 188.619 94.021L189.539 93.6293ZM181.675 80.594L194.655 58.1651L193.79 57.6642L180.809 80.0931L181.675 80.594ZM194.546 57.5337L180.237 45.3724L179.589 46.1344L193.899 58.2957L194.546 57.5337ZM179.586 45.375L159.995 62.2966L160.648 63.0533L180.24 46.1318L179.586 45.375ZM160.551 62.2308C155.883 59.8188 150.931 58.0121 145.812 56.8537L145.591 57.829C150.627 58.9686 155.5 60.7462 160.092 63.1192L160.551 62.2308ZM146.194 57.2584L141.879 31.6155L140.893 31.7815L145.208 57.4244L146.194 57.2584ZM141.386 31.1985H122.71V32.1985H141.386V31.1985ZM122.217 31.6137L117.815 57.1871L118.801 57.3567L123.202 31.7833L122.217 31.6137ZM118.199 56.7839C113.139 57.914 108.239 59.6793 103.616 62.0385L104.07 62.9292C108.619 60.6083 113.439 58.8716 118.417 57.7599L118.199 56.7839ZM104.169 62.1047L84.6468 45.3222L83.9949 46.0805L103.517 62.863L104.169 62.1047ZM83.9994 45.3183L69.6554 57.358L70.2983 58.1239L84.6423 46.0843L83.9994 45.3183ZM69.543 57.9895L82.4198 80.4704L83.2875 79.9734L70.4107 57.4924L69.543 57.9895ZM82.4562 79.9185C79.2453 84.124 76.5844 88.7271 74.5386 93.6147L75.4611 94.0008C77.4739 89.1918 80.092 84.6629 83.251 80.5253L82.4562 79.9185ZM75.0025 93.3078L49.2144 93.1688L49.209 94.1688L74.9971 94.3078L75.0025 93.3078ZM48.7192 93.5827L45.5086 111.946L46.4937 112.118L49.7042 93.7549L48.7192 93.5827ZM45.8287 112.502L69.9943 121.379L70.3391 120.441L46.1735 111.563L45.8287 112.502ZM69.6672 120.932C69.8973 126.208 70.7918 131.434 72.3293 136.483L73.286 136.192C71.773 131.223 70.8927 126.08 70.6662 120.888L69.6672 120.932ZM72.4872 135.954L52.6369 152.528L53.2778 153.295L73.1281 136.721L72.4872 135.954ZM52.5231 153.159L61.8269 169.455L62.6953 168.96L53.3916 152.664L52.5231 153.159ZM62.4338 169.677L86.5994 160.782L86.254 159.843L62.0884 168.738L62.4338 169.677ZM86.0608 160.653C89.6421 164.499 93.6943 167.871 98.1201 170.689L98.6572 169.846C94.303 167.073 90.3162 163.755 86.7926 159.972L86.0608 160.653ZM97.8966 170.179L93.2879 195.717L94.272 195.895L98.8807 170.356L97.8966 170.179ZM93.607 196.275L111.144 202.738L111.49 201.8L93.9528 195.337L93.607 196.275ZM111.75 202.518L124.714 180.02L123.847 179.521L110.884 202.019L111.75 202.518ZM124.28 179.271H124.177V180.271H124.28V179.271ZM124.114 180.267C129.354 180.932 134.656 180.932 139.896 180.267L139.77 179.274C134.613 179.929 129.396 179.929 124.24 179.274L124.114 180.267ZM139.398 180.017L152.188 202.602L153.058 202.109L140.268 179.524L139.398 180.017ZM152.796 202.825L170.196 196.397L169.849 195.459L152.45 201.887L152.796 202.825ZM170.515 195.841L166.01 170.302L165.025 170.476L169.53 196.014L170.515 195.841ZM165.517 169.889H165.414V170.889H165.517V169.889ZM165.685 170.809C167.877 169.394 169.98 167.844 171.983 166.169L171.341 165.402C169.37 167.051 167.3 168.576 165.142 169.969L165.685 170.809ZM171.984 166.167C174.038 164.438 175.979 162.578 177.796 160.598L177.059 159.922C175.271 161.87 173.361 163.701 171.34 165.403L171.984 166.167ZM176.927 160.26V160.365H177.927V160.26H176.927ZM177.253 160.833L201.419 169.798L201.767 168.86L177.601 159.896L177.253 160.833ZM202.026 169.579L211.382 153.317L210.515 152.819L201.16 169.08L202.026 169.579ZM211.271 152.685L191.489 136.025L190.845 136.789L210.626 153.45L211.271 152.685ZM190.732 136.16L190.663 136.282L191.533 136.775L191.602 136.654L190.732 136.16ZM16.3114 117.991C16.3114 87.0949 28.5058 57.4645 50.211 35.6184L49.5016 34.9136C27.6096 56.9477 15.3114 86.8317 15.3114 117.991H16.3114ZM50.211 35.6184C71.916 13.7724 101.354 1.5 132.048 1.5V0.5C101.086 0.5 71.3937 12.8793 49.5016 34.9136L50.211 35.6184ZM247.784 117.991C247.787 133.291 244.794 148.441 238.979 162.577L239.904 162.958C245.769 148.701 248.787 133.421 248.784 117.991L247.784 117.991ZM238.979 162.577C233.163 176.713 224.638 189.557 213.891 200.376L214.6 201.08C225.44 190.168 234.038 177.214 239.904 162.958L238.979 162.577ZM213.891 200.376C203.143 211.194 190.384 219.776 176.341 225.631L176.726 226.554C190.89 220.649 203.76 211.992 214.6 201.08L213.891 200.376ZM176.341 225.631C162.298 231.486 147.248 234.5 132.048 234.5V235.5C147.38 235.5 162.562 232.46 176.726 226.554L176.341 225.631ZM0.476214 100.049L15.4071 118.308L16.1812 117.675L1.25035 99.4155L0.476214 100.049ZM16.181 118.308L31.1292 100.049L30.3554 99.4153L15.4073 117.675L16.181 118.308ZM263.619 135.951L248.671 117.675L247.897 118.308L262.845 136.584L263.619 135.951ZM247.897 117.675L232.966 135.952L233.741 136.584L248.671 118.308L247.897 117.675ZM132.548 133.419V78.1545H131.548V133.419H132.548ZM131.617 78.408L155.644 119.252L156.506 118.745L132.479 77.901L131.617 78.408ZM155.818 118.57L131.791 132.99L132.305 133.847L156.333 119.428L155.818 118.57ZM132.305 142.734L156.333 128.315L155.818 127.457L131.791 141.877L132.305 142.734ZM155.667 127.598L131.639 161.702L132.457 162.278L156.484 128.174L155.667 127.598ZM132.548 161.99V142.306H131.548V161.99H132.548ZM131.843 108.684L155.871 119.455L156.28 118.543L132.252 107.771L131.843 108.684ZM131.617 77.901L107.589 118.745L108.451 119.252L132.479 78.408L131.617 77.901ZM107.763 119.428L131.791 133.847L132.305 132.99L108.278 118.57L107.763 119.428ZM132.305 141.877L108.278 127.457L107.763 128.315L131.791 142.734L132.305 141.877ZM107.612 128.174L131.639 162.278L132.457 161.702L108.429 127.598L107.612 128.174ZM131.843 107.771L107.816 118.543L108.225 119.455L132.252 108.684L131.843 107.771Z" fill="url(#paint0_linear_200_170)"/>
<defs>
<linearGradient id="paint0_linear_200_170" x1="25.5" y1="11.6185" x2="249.251" y2="235.618" gradientUnits="userSpaceOnUse">
<stop stop-color="#B1D5FF"/>
<stop offset="1" stop-color="#FF91FF"/>
</linearGradient>
</defs>
</svg>
