<svg width="142" height="120" viewBox="0 0 142 120" fill="none" xmlns="http://www.w3.org/2000/svg">
<g clip-path="url(#clip0_200_89)">
<path d="M60 11.0353C72.5773 11.0367 84.672 15.8771 93.7775 24.5533C102.883 33.2296 108.301 45.0766 108.91 57.6392" stroke="#FF4200" stroke-linecap="round" stroke-linejoin="round"/>
<path d="M97.7725 91.1608C94.0797 95.6412 89.621 99.4307 84.6039 102.353" stroke="#FF4200" stroke-linecap="round" stroke-linejoin="round"/>
<path d="M97.7725 106.11C87.3786 114.624 74.4129 119.377 60.9786 119.598C47.5443 119.818 34.4295 115.494 23.7615 107.325C13.0935 99.1571 5.49807 87.6241 2.20726 74.5973C-1.08354 61.5704 0.123312 47.8138 5.63206 35.5589C11.1408 23.304 20.6283 13.2697 32.5556 7.08364C44.4829 0.897549 58.1504 -1.07746 71.341 1.47899C84.5317 4.03544 96.4717 10.9734 105.224 21.1674C113.977 31.3615 119.029 44.2136 119.561 57.6392" stroke="#FF4200" stroke-linejoin="round"/>
<path d="M35.404 17.6549C26.0964 23.0662 18.8314 31.3939 14.733 41.3496C10.6345 51.3053 9.93103 62.3341 12.7313 72.7298C15.5316 83.1256 21.6796 92.3088 30.2242 98.8589C38.7688 105.409 49.2338 108.961 60.0001 108.965" stroke="#FF4200" stroke-linecap="round" stroke-linejoin="round"/>
<path d="M48.8079 79.7334H44.4941L57.2549 45.2941C57.7212 44.1985 58.0836 43.0615 58.3373 41.8981C58.3538 41.7047 58.3173 41.5105 58.2316 41.3363C58.1459 41.1622 58.0143 41.0147 57.851 40.9098C57.0779 40.6438 56.2578 40.5423 55.4432 40.6118H54.251L54.6824 39.3647C58.5255 39.2863 61.3778 38.9281 63.2392 38.2902H64.149L55.9138 60.5334C60.2693 56.1935 64.2353 54.0262 67.8118 54.0314C69.079 53.9581 70.3397 54.261 71.4353 54.902C71.8353 55.1882 72.1555 55.5719 72.3655 56.0167C72.5755 56.4614 72.6684 56.9524 72.6353 57.4432C72.6353 58.3373 71.9216 60.4628 70.4941 63.8196L67.302 71.302C66.068 74.2301 65.451 75.919 65.451 76.3687C65.4234 76.7797 65.5523 77.186 65.8118 77.5059C65.9564 77.6429 66.1282 77.7478 66.316 77.8141C66.5038 77.8803 66.7035 77.9062 66.902 77.8902C67.9965 77.8 69.0305 77.3506 69.8432 76.6118C70.9563 75.7222 71.9018 74.6412 72.6353 73.4196H74.4079C73.2862 75.324 71.7956 76.9852 70.0236 78.3059C68.6548 79.4224 66.9643 80.0711 65.2 80.1569C64.1541 80.1813 63.1356 79.8214 62.3373 79.1451C61.9473 78.8115 61.6397 78.3923 61.4384 77.9202C61.237 77.4481 61.1474 76.9359 61.1765 76.4236C61.1765 75.2314 61.8536 73.1138 63.2079 70.0706L66.2902 63.1843C67.7177 60.0471 68.4314 58.0602 68.4314 57.2236C68.4461 57.0106 68.4088 56.7972 68.3227 56.6018C68.2366 56.4065 68.1043 56.2349 67.9373 56.102C67.4866 55.8238 66.9596 55.6948 66.4314 55.7334C65.0857 55.8033 63.7727 56.1731 62.5883 56.8157C60.8532 57.751 59.295 58.9827 57.9843 60.4549C56.5946 61.8734 55.4165 63.4848 54.4863 65.2392C53.4082 67.5661 52.4476 69.9456 51.6079 72.3687L48.8079 79.7334Z" fill="#FF4200"/>
<path d="M70.635 44.6573L47.5333 50.7136L48.1698 53.1414L71.2715 47.0851L70.635 44.6573Z" fill="#FF4200"/>
<path d="M97.7726 57.6392V119.608H141.443V73.3255H125.757V57.6392H97.7726Z" stroke="#FF4200" stroke-miterlimit="10"/>
<path d="M125.765 57.6392L141.451 73.3255" stroke="#FF4200" stroke-miterlimit="10"/>
<path d="M126.196 86.2667H113.027C111.507 86.2667 110.275 87.4992 110.275 89.0196V99.5608C110.275 101.081 111.507 102.314 113.027 102.314H126.196C127.717 102.314 128.949 101.081 128.949 99.5608V89.0196C128.949 87.4992 127.717 86.2667 126.196 86.2667Z" stroke="#FF4200" stroke-miterlimit="10"/>
<path d="M114.251 86.2745V81.4353C114.251 80.0146 114.815 78.652 115.82 77.6474C116.825 76.6428 118.187 76.0784 119.608 76.0784C121.029 76.0784 122.391 76.6428 123.396 77.6474C124.4 78.652 124.965 80.0146 124.965 81.4353V86.2745" stroke="#FF4200" stroke-miterlimit="10"/>
</g>
<defs>
<clipPath id="clip0_200_89">
<rect width="141.843" height="120" fill="white"/>
</clipPath>
</defs>
</svg>
