<svg width="581" height="895" viewBox="0 0 581 895" fill="none" xmlns="http://www.w3.org/2000/svg">
<path d="M447.5 805.93C423.045 805.93 403.215 825.76 403.215 850.215H404.215C404.215 826.312 423.597 806.93 447.5 806.93V805.93ZM403.215 850.215C403.215 874.67 423.045 894.5 447.5 894.5V893.5C423.597 893.5 404.215 874.118 404.215 850.215H403.215ZM447.5 894.5C471.955 894.5 491.785 874.67 491.785 850.215H490.785C490.785 874.118 471.403 893.5 447.5 893.5V894.5ZM491.785 850.215C491.785 825.76 471.955 805.93 447.5 805.93V806.93C471.403 806.93 490.785 826.312 490.785 850.215H491.785ZM162.732 687.973C138.277 687.973 118.447 707.803 118.447 732.258H119.447C119.447 708.355 138.829 688.973 162.732 688.973V687.973ZM118.447 732.258C118.447 756.713 138.277 776.543 162.732 776.543V775.543C138.829 775.543 119.447 756.161 119.447 732.258H118.447ZM162.732 776.543C187.187 776.543 207.017 756.713 207.017 732.258H206.017C206.017 756.161 186.635 775.543 162.732 775.543V776.543ZM207.017 732.258C207.017 707.803 187.187 687.973 162.732 687.973V688.973C186.635 688.973 206.017 708.355 206.017 732.258H207.017ZM44.785 403.215C20.3298 403.215 0.5 423.045 0.5 447.5H1.5C1.5 423.597 20.8821 404.215 44.785 404.215V403.215ZM0.5 447.5C0.5 471.955 20.3298 491.785 44.785 491.785V490.785C20.8821 490.785 1.5 471.403 1.5 447.5H0.5ZM44.785 491.785C69.2402 491.785 89.07 471.955 89.07 447.5H88.07C88.07 471.403 68.6879 490.785 44.785 490.785V491.785ZM89.07 447.5C89.07 423.045 69.2402 403.215 44.785 403.215V404.215C68.6879 404.215 88.07 423.597 88.07 447.5H89.07ZM162.732 118.447C138.277 118.447 118.447 138.277 118.447 162.732H119.447C119.447 138.829 138.829 119.447 162.732 119.447V118.447ZM118.447 162.732C118.447 187.187 138.277 207.017 162.732 207.017V206.017C138.829 206.017 119.447 186.635 119.447 162.732H118.447ZM162.732 207.017C187.187 207.017 207.017 187.187 207.017 162.732H206.017C206.017 186.635 186.635 206.017 162.732 206.017V207.017ZM207.017 162.732C207.017 138.277 187.187 118.447 162.732 118.447V119.447C186.635 119.447 206.017 138.829 206.017 162.732H207.017ZM732.268 118.447C707.813 118.447 687.983 138.277 687.983 162.732H688.983C688.983 138.829 708.365 119.447 732.268 119.447V118.447ZM687.983 162.732C687.983 187.187 707.813 207.017 732.268 207.017V206.017C708.365 206.017 688.983 186.635 688.983 162.732H687.983ZM732.268 207.017C756.723 207.017 776.553 187.187 776.553 162.732H775.553C775.553 186.635 756.171 206.017 732.268 206.017V207.017ZM776.553 162.732C776.553 138.277 756.723 118.447 732.268 118.447V119.447C756.171 119.447 775.553 138.829 775.553 162.732H776.553ZM850.215 403.215C825.76 403.215 805.93 423.045 805.93 447.5H806.93C806.93 423.597 826.312 404.215 850.215 404.215V403.215ZM805.93 447.5C805.93 471.955 825.76 491.785 850.215 491.785V490.785C826.312 490.785 806.93 471.403 806.93 447.5H805.93ZM850.215 491.785C874.67 491.785 894.5 471.955 894.5 447.5H893.5C893.5 471.403 874.118 490.785 850.215 490.785V491.785ZM894.5 447.5C894.5 423.045 874.67 403.215 850.215 403.215V404.215C874.118 404.215 893.5 423.597 893.5 447.5H894.5ZM732.268 687.973C707.813 687.973 687.983 707.803 687.983 732.258H688.983C688.983 708.355 708.365 688.973 732.268 688.973V687.973ZM687.983 732.258C687.983 756.713 707.813 776.543 732.268 776.543V775.543C708.365 775.543 688.983 756.161 688.983 732.258H687.983ZM732.268 776.543C756.723 776.543 776.553 756.713 776.553 732.258H775.553C775.553 756.161 756.171 775.543 732.268 775.543V776.543ZM776.553 732.258C776.553 707.803 756.723 687.973 732.268 687.973V688.973C756.171 688.973 775.553 708.355 775.553 732.258H776.553ZM447.5 0.5C423.045 0.5 403.215 20.3298 403.215 44.785H404.215C404.215 20.8821 423.597 1.5 447.5 1.5V0.5ZM403.215 44.785C403.215 69.2402 423.045 89.07 447.5 89.07V88.07C423.597 88.07 404.215 68.6879 404.215 44.785H403.215ZM447.5 89.07C471.955 89.07 491.785 69.2402 491.785 44.785H490.785C490.785 68.6879 471.403 88.07 447.5 88.07V89.07ZM491.785 44.785C491.785 20.3298 471.955 0.5 447.5 0.5V1.5C471.403 1.5 490.785 20.8821 490.785 44.785H491.785ZM447.5 213.966C318.525 213.966 213.966 318.525 213.966 447.5H214.966C214.966 319.077 319.077 214.966 447.5 214.966V213.966ZM213.966 447.5C213.966 576.475 318.525 681.034 447.5 681.034V680.034C319.077 680.034 214.966 575.923 214.966 447.5H213.966ZM447.5 681.034C576.475 681.034 681.033 576.475 681.033 447.5H680.033C680.033 575.923 575.922 680.034 447.5 680.034V681.034ZM681.033 447.5C681.033 318.525 576.475 213.966 447.5 213.966V214.966C575.922 214.966 680.033 319.077 680.033 447.5H681.033ZM761.896 699.986C808.872 641.572 839.891 569.802 848.357 491.27L847.363 491.163C838.918 569.499 807.977 641.09 761.117 699.359L761.896 699.986ZM761.117 195.631C807.977 253.9 838.918 325.501 847.363 403.837L848.357 403.729C839.891 325.198 808.872 253.418 761.896 195.005L761.117 195.631ZM491.163 47.6368C569.499 56.0816 641.1 87.023 699.369 133.883L699.995 133.104C641.582 86.1277 569.802 55.1085 491.27 46.6425L491.163 47.6368ZM195.631 133.883C253.9 87.023 325.501 56.0816 403.837 47.6368L403.729 46.6425C325.198 55.1085 253.418 86.1277 195.005 133.104L195.631 133.883ZM47.6368 403.837C56.0816 325.501 87.023 253.9 133.883 195.631L133.104 195.005C86.1277 253.418 55.1085 325.198 46.6425 403.729L47.6368 403.837ZM46.6425 491.27C55.1085 569.802 86.1277 641.572 133.104 699.986L133.883 699.359C87.023 641.09 56.0816 569.499 47.6368 491.163L46.6425 491.27ZM491.27 848.357C569.802 839.891 641.582 808.863 699.995 761.886L699.369 761.107C641.1 807.967 569.499 838.918 491.163 847.363L491.27 848.357ZM195.005 761.886C253.418 808.863 325.198 839.891 403.729 848.357L403.837 847.363C325.501 838.918 253.9 807.967 195.631 761.107L195.005 761.886ZM819.608 416.186L478.814 75.3923L478.107 76.0994L818.901 416.893L819.608 416.186ZM76.0994 416.893L211.453 281.539L210.746 280.832L75.3923 416.186L76.0994 416.893ZM211.453 281.539L246.501 246.491L245.794 245.784L210.746 280.832L211.453 281.539ZM246.501 246.491L416.893 76.0994L416.186 75.3923L245.794 245.784L246.501 246.491ZM416.186 75.3923L75.3923 416.186L76.0994 416.893L416.893 76.0994L416.186 75.3923ZM478.814 819.608L614.168 684.254L613.461 683.546L478.107 818.901L478.814 819.608ZM614.168 684.254L649.216 649.206L648.509 648.499L613.461 683.546L614.168 684.254ZM649.216 649.206L819.608 478.814L818.901 478.107L648.509 648.499L649.216 649.206ZM818.901 478.107L478.107 818.901L478.814 819.608L819.608 478.814L818.901 478.107ZM75.3923 478.814L280.832 684.254L281.539 683.546L76.0994 478.107L75.3923 478.814ZM280.832 684.254L416.186 819.608L416.893 818.901L281.539 683.546L280.832 684.254ZM448 806.43L448 680.524H447L447 806.43H448ZM448 214.466V88.57H447V214.466H448ZM214.466 447L88.57 447V448L214.466 448V447ZM806.43 447L680.533 447V448L806.43 448V447ZM193.339 194.046L245.794 246.491L246.501 245.784L194.046 193.339L193.339 194.046ZM245.794 246.491L282.369 283.076L283.076 282.369L246.501 245.784L245.794 246.491ZM701.661 700.944L649.216 648.499L648.509 649.206L700.954 701.651L701.661 700.944ZM649.216 648.499L612.631 611.924L611.924 612.631L648.509 649.206L649.216 648.499ZM227.194 370.318L84.9611 430.08L85.3484 431.002L227.582 371.24L227.194 370.318ZM84.9611 464.92L227.194 524.682L227.582 523.76L85.3484 463.998L84.9611 464.92ZM667.806 524.682L810.039 464.92L809.652 463.998L667.418 523.76L667.806 524.682ZM810.039 430.08L667.806 370.318L667.418 371.24L809.652 431.002L810.039 430.08ZM178.82 203.466L210.637 281.374L211.563 280.996L179.746 203.088L178.82 203.466ZM210.637 281.374L237.151 346.322L238.077 345.944L211.563 280.996L210.637 281.374ZM691.912 715.245L614.004 683.437L613.626 684.363L691.534 716.17L691.912 715.245ZM614.004 683.437L549.066 656.913L548.688 657.839L613.626 684.363L614.004 683.437ZM523.76 667.399L463.998 809.651L464.92 810.039L524.682 667.786L523.76 667.399ZM431.002 809.651L371.24 667.399L370.318 667.786L430.08 810.039L431.002 809.651ZM524.682 227.194L464.92 84.9611L463.998 85.3484L523.76 227.582L524.682 227.194ZM430.08 84.9611L370.318 227.194L371.24 227.582L431.002 85.3484L430.08 84.9611ZM345.934 656.913L280.996 683.437L281.374 684.363L346.312 657.839L345.934 656.913ZM280.996 683.437L203.088 715.245L203.466 716.17L281.374 684.363L280.996 683.437ZM383.14 540.013V354.987H382.14V540.013H383.14ZM511.86 354.987V540.013H512.86V354.987H511.86ZM382.64 417.759H512.36V416.759H382.64V417.759ZM512.36 472.376H382.64V473.376H512.36V472.376ZM194.046 701.651L283.076 612.631L282.369 611.924L193.339 700.944L194.046 701.651ZM612.631 283.076L701.661 194.046L700.954 193.339L611.924 282.369L612.631 283.076ZM346.322 237.151L203.466 178.82L203.088 179.746L345.944 238.077L346.322 237.151ZM656.923 549.056L715.245 691.902L716.17 691.524L657.849 548.678L656.923 549.056ZM179.755 691.902L238.077 549.056L237.151 548.678L178.83 691.524L179.755 691.902ZM549.056 238.077L691.912 179.746L691.534 178.82L548.678 237.151L549.056 238.077ZM715.254 203.088L656.923 345.944L657.849 346.322L716.18 203.466L715.254 203.088Z" fill="#888888"/>
</svg>
