<svg width="44" height="44" viewBox="0 0 44 44" fill="none" xmlns="http://www.w3.org/2000/svg">
<path d="M22 0C17.6488 0 13.3953 1.29028 9.77746 3.70767C6.15958 6.12506 3.33979 9.56099 1.67466 13.581C0.00953247 17.6009 -0.426141 22.0244 0.422734 26.292C1.27161 30.5596 3.3669 34.4796 6.44366 37.5563C9.52041 40.6331 13.4404 42.7284 17.708 43.5773C21.9756 44.4261 26.3991 43.9905 30.419 42.3253C34.439 40.6602 37.8749 37.8404 40.2923 34.2225C42.7097 30.6047 44 26.3512 44 22C44 16.1652 41.6821 10.5694 37.5563 6.44365C33.4305 2.31785 27.8348 0 22 0Z" fill="#111111"/>
<path d="M28.1891 12.1069V18.3119H15.8076V12.1069H12.9246V31.8681H15.8234V25.6852H28.2049V31.8776H31.1037V12.1069H28.1891ZM28.1891 23.5695H15.8076V20.4118H28.1891V23.5695Z" fill="white"/>
</svg>
